<?xml version="1.0" encoding="UTF-8" standalone="no"?>
<!-- Created with Inkscape (http://www.inkscape.org/) -->

<svg
   xmlns:dc="http://purl.org/dc/elements/1.1/"
   xmlns:cc="http://creativecommons.org/ns#"
   xmlns:rdf="http://www.w3.org/1999/02/22-rdf-syntax-ns#"
   xmlns:svg="http://www.w3.org/2000/svg"
   xmlns="http://www.w3.org/2000/svg"
   xmlns:xlink="http://www.w3.org/1999/xlink"
   xmlns:sodipodi="http://sodipodi.sourceforge.net/DTD/sodipodi-0.dtd"
   xmlns:inkscape="http://www.inkscape.org/namespaces/inkscape"
   width="297mm"
   height="210mm"
   viewBox="0 0 297 210"
   version="1.1"
   id="svg9039"
   inkscape:version="0.92.4 (5da689c313, 2019-01-14)"
   sodipodi:docname="csminha.svg">
  <defs
     id="defs9033">
    <marker
       style="overflow:visible"
       id="marker21666"
       refX="0.0"
       refY="0.0"
       orient="auto"
       inkscape:stockid="DistanceStart"
       inkscape:isstock="true">
      <g
         id="g21664"
         style="stroke:#f0f700;stroke-opacity:1;fill:#000000;fill-opacity:0.96470588">
        <path
           style="fill:#000000;stroke:#f0f700;stroke-width:1.15;stroke-linecap:square;stroke-opacity:1;fill-opacity:0.96470588"
           d="M 0,0 L 2,0"
           id="path21658" />
        <path
           style="fill:#000000;fill-rule:evenodd;stroke:#f0f700;stroke-opacity:1;fill-opacity:0.96470588"
           d="M 0,0 L 13,4 L 9,0 13,-4 L 0,0 z "
           id="path21660" />
        <path
           style="fill:#000000;stroke:#f0f700;stroke-width:1;stroke-linecap:square;stroke-opacity:1;fill-opacity:0.96470588"
           d="M 0,-4 L 0,40"
           id="path21662" />
      </g>
    </marker>
  </defs>
  <sodipodi:namedview
     id="base"
     pagecolor="#ffffff"
     bordercolor="#666666"
     borderopacity="1.0"
     inkscape:pageopacity="0.0"
     inkscape:pageshadow="2"
     inkscape:zoom="0.47"
     inkscape:cx="417.53168"
     inkscape:cy="347.80361"
     inkscape:document-units="mm"
     inkscape:current-layer="layer1"
     showgrid="false"
     inkscape:window-width="1366"
     inkscape:window-height="706"
     inkscape:window-x="-8"
     inkscape:window-y="-8"
     inkscape:window-maximized="1" />
  <metadata
     id="metadata9036">
    <rdf:RDF>
      <cc:Work
         rdf:about="">
        <dc:format>image/svg+xml</dc:format>
        <dc:type
           rdf:resource="http://purl.org/dc/dcmitype/StillImage" />
        <dc:title></dc:title>
      </cc:Work>
    </rdf:RDF>
  </metadata>
  <g
     inkscape:label="Camada 1"
     inkscape:groupmode="layer"
     id="layer1"
     transform="translate(0,-87)">
    <ellipse
       style="opacity:1;fill:#000000;fill-opacity:0.96470588;stroke:#f0f700;stroke-width:0.614;stroke-linecap:round;stroke-linejoin:round;stroke-miterlimit:4;stroke-dasharray:1.228, 0.61399999999999999;stroke-dashoffset:0;stroke-opacity:1;paint-order:normal;marker-mid:url(#marker21666)"
       id="path9590"
       cx="97.389191"
       cy="253.09042"
       rx="28.147165"
       ry="28.147163" />
    <use
       id="use9592"
       inkscape:spray-origin="#path9590"
       xlink:href="#path9590"
       x="0"
       y="0"
       width="100%"
       height="100%"
       transform="matrix(0.9674312,0,0,1,120.04981,-0.44209058)" />
    <rect
       style="opacity:1;fill:#ca5c94;fill-opacity:0;stroke:#f0f700;stroke-width:0.61399996;stroke-linecap:round;stroke-linejoin:round;stroke-miterlimit:4;stroke-dasharray:1.22799998, 0.61399999000000005;stroke-dashoffset:0;stroke-opacity:1;paint-order:normal"
       id="rect21334"
       width="192.52658"
       height="66.427307"
       x="68.679077"
       y="175.40427" />
    <path
       style="opacity:1;fill:#ca5c94;fill-opacity:0;stroke:#f0f700;stroke-width:4.93751049;stroke-linecap:round;stroke-linejoin:round;stroke-miterlimit:4;stroke-dasharray:9.87502094, 4.93751047;stroke-dashoffset:0;stroke-opacity:1;paint-order:normal"
       d="m 262.35432,583.23761 c -0.15605,-0.29256 -0.42802,-55.82447 -0.60437,-123.40426 -0.21746,-83.33299 0.38734,-122.91213 1.87948,-122.99599 1.21006,-0.068 164.00863,-0.16802 361.77459,-0.22225 l 359.57446,-0.0986 0.54907,123.6265 0.54906,123.6265 -39.91076,-0.004 -39.91077,-0.004 -6.04275,-11.56498 c -11.27972,-21.58785 -37.35653,-42.4075 -63.92772,-51.03971 -3.86681,-1.25621 -3.87374,-1.45761 -0.19042,-5.52771 5.87683,-6.49383 2.47217,-7.20938 -11.63503,-2.44531 -12.65817,4.27316 -12.88493,4.27731 -12.88493,0.23394 0,-2.26369 -0.95745,-4.1158 -2.12766,-4.1158 -1.17021,0 -2.12766,1.77335 -2.12766,3.94079 0,3.2015 -2.62551,4.37585 -13.99532,6.25989 -29.38717,4.86961 -58.2076,25.03259 -73.23872,51.23832 l -7.44681,12.983 -122.82911,0.023 -122.82909,0.0231 -4.53352,-8.88645 c -2.49344,-4.88753 -9.3282,-13.95608 -15.18835,-20.15234 -14.82691,-15.67727 -28.09618,-23.79282 -51.39891,-31.43583 -3.8668,-1.26827 -3.87373,-1.47014 -0.19036,-5.54023 5.35672,-5.9191 2.57254,-7.44825 -8.01696,-4.40315 -4.98094,1.43232 -10.61311,3.04874 -12.51591,3.59205 -2.22379,0.63496 -4.04113,-0.74359 -5.08743,-3.85906 -1.58329,-4.71448 -1.65249,-4.68704 -2.53273,1.00416 -0.76989,4.97777 -1.92282,5.85106 -7.72458,5.85106 -10.50661,0 -33.76805,7.12006 -45.25563,13.85224 -14.62836,8.57278 -29.58429,23.18876 -38.48679,37.61193 -4.19787,6.80109 -8.93257,12.36562 -10.52156,12.36562 -1.58899,0 -3.01675,-0.23936 -3.17281,-0.53191 z"
       id="path21336"
       inkscape:connector-curvature="0"
       transform="matrix(0.26458333,0,0,0.26458333,0,87)" />
    <path
       style="opacity:1;fill:#ca5c94;fill-opacity:0;stroke:#f0f700;stroke-width:4.93751049;stroke-linecap:round;stroke-linejoin:round;stroke-miterlimit:4;stroke-dasharray:9.87502094, 4.93751047;stroke-dashoffset:0;stroke-opacity:1;paint-order:normal"
       d="m 471.97211,579.93633 c -2.47265,-0.35294 -5.58022,-3.02189 -6.90572,-5.93104 -6.35305,-13.94343 -30.43961,-36.93449 -47.27732,-45.12706 -7.69887,-3.74596 -15.19515,-6.81084 -16.65842,-6.81084 -1.8492,0 -2.23298,-1.94642 -1.25855,-6.38297 1.3088,-5.95895 0.98777,-6.38298 -4.8326,-6.38298 -3.42899,0 -9.37433,1.09453 -13.21186,2.4323 -5.90901,2.0599 -7.27689,1.89701 -8.93385,-1.06383 -2.70569,-4.83478 -8.12807,-4.39264 -8.12807,0.66278 0,3.15134 -1.93297,4.48059 -7.97873,5.48675 -13.57496,2.25919 -35.2005,9.56742 -44.7952,15.1383 -11.73348,6.81269 -29.73687,24.36499 -38.95813,37.98199 l -7.20411,10.6383 -0.62166,-111.70213 c -0.34191,-61.43617 -0.0464,-115.75484 0.65681,-120.70817 l 1.27846,-9.00604 357.32192,-0.0545 357.32191,-0.0545 0.1366,76.08185 c 0.0751,41.84502 0.18213,95.52275 0.23772,119.28386 0.0557,23.7611 -0.51236,43.81554 -1.26225,44.56544 -1.45219,1.45219 -63.627,2.23364 -69.78268,0.87706 -2.00719,-0.44234 -6.45032,-5.76715 -9.87362,-11.83289 -3.4233,-6.06575 -11.87804,-16.25534 -18.78832,-22.64353 -12.36234,-11.42827 -35.74536,-25.44469 -42.44842,-25.44469 -2.78656,0 -2.93392,-0.58679 -0.79471,-3.16439 1.44443,-1.74042 2.02934,-4.71981 1.29985,-6.62087 -1.34251,-3.49848 -1.80621,-3.48674 -20.95821,0.53035 -3.61464,0.75817 -5.85106,0.3217 -5.85106,-1.1419 0,-3.87441 -7.28649,-2.69026 -9.97943,1.6218 -1.37081,2.19501 -6.14898,4.65526 -10.61817,5.46721 -11.41657,2.07414 -23.56557,6.34456 -34.58889,12.15811 -9.83996,5.18946 -38.43053,31.85789 -38.43053,35.84684 0,1.26002 -0.99011,3.44736 -2.20024,4.86075 -1.2101,1.41336 -3.41744,4.33544 -4.90515,6.49349 -2.56851,3.72578 -8.60202,3.94044 -119.60829,4.25532 -64.29683,0.18234 -118.92643,0.0428 -121.39908,-0.31011 z"
       id="path21338"
       inkscape:connector-curvature="0"
       transform="matrix(0.26458333,0,0,0.26458333,0,87)" />
    <path
       style="opacity:1;fill:#ca5c94;fill-opacity:0;stroke:#f0f700;stroke-width:4.93751049;stroke-linecap:round;stroke-linejoin:round;stroke-miterlimit:4;stroke-dasharray:9.87502094, 4.93751047;stroke-dashoffset:0;stroke-opacity:1;paint-order:normal"
       d="m 468.39604,573.61612 c -1.99668,-2.2063 -3.63032,-5.09826 -3.63032,-6.42656 0,-1.32832 -7.2387,-9.63034 -16.08599,-18.44898 -11.62139,-11.58373 -20.17228,-17.95321 -30.80893,-22.94927 -12.71919,-5.97424 -14.72867,-7.68074 -14.76507,-12.53883 -0.0534,-7.13315 -3.15924,-8.26711 -16.04787,-5.85925 -6.71171,1.25388 -11.10423,1.18123 -12.49207,-0.20662 -3.45927,-3.45927 -9.47825,-2.46208 -11.84627,1.96261 -1.46419,2.73587 -6.27471,4.9332 -14.43656,6.59427 -28.95702,5.89322 -53.90616,21.47724 -72.75687,45.44624 l -6.50505,8.2713 -0.16526,-71.03724 c -0.27652,-118.86626 -0.0363,-153.45985 1.07354,-154.56964 1.75577,-1.75577 705.25501,-1.43907 707.01236,0.31828 0.89361,0.89361 1.87804,52.9532 2.18763,115.68796 0.44315,89.7987 -0.006,114.42462 -2.11312,115.76211 -1.47179,0.93438 -16.62569,1.71355 -33.67528,1.73147 -30.45783,0.0319 -31.08032,-0.0606 -35.6383,-5.30277 -2.55147,-2.93442 -4.63902,-6.25413 -4.63902,-7.37708 0,-1.12298 -6.94149,-9.01841 -15.42553,-17.54541 -10.30909,-10.36128 -20.36556,-18.01923 -30.31915,-23.08791 -12.2766,-6.25162 -14.89362,-8.49331 -14.89362,-12.75757 0,-4.94868 -0.60044,-5.17328 -13.82979,-5.17328 -7.60638,0 -14.86665,-0.67574 -16.13393,-1.50165 -1.26728,-0.82591 -5.57579,0.6439 -9.57447,3.26624 -3.99868,2.62234 -11.92587,5.95619 -17.616,7.40855 -27.47657,7.01319 -56.77364,28.47077 -69.29798,50.75484 -4.11438,7.32053 -6.26687,8.98238 -12.65689,9.77183 -4.2347,0.52319 -58.0073,1.14621 -119.49466,1.38453 -107.128,0.41521 -111.94677,0.26583 -115.42553,-3.57817 z"
       id="path21340"
       inkscape:connector-curvature="0"
       transform="matrix(0.26458333,0,0,0.26458333,0,87)" />
    <path
       style="opacity:1;fill:#ca5c94;fill-opacity:0;stroke:#f0f700;stroke-width:4.93751049;stroke-linecap:round;stroke-linejoin:round;stroke-miterlimit:4;stroke-dasharray:9.87502094, 4.93751047;stroke-dashoffset:0;stroke-opacity:1;paint-order:normal"
       d="m 476.99894,573.52173 c -3.26631,-0.37583 -6.90445,-2.64006 -8.23415,-5.12463 -7.04848,-13.1702 -31.91394,-36.21836 -48.06532,-44.55245 -10.31842,-5.32428 -13.50356,-8.13196 -14.53076,-12.80877 -0.72356,-3.29437 -1.95758,-6.09629 -2.74226,-6.2265 -0.78468,-0.1302 -10.04371,-0.49914 -20.57563,-0.81986 -15.77866,-0.48049 -19.89788,0.0737 -23.40425,3.14899 -3.68797,3.23453 -9.77021,5.59536 -19.62859,7.61887 -17.18679,3.52772 -42.1575,18.46375 -57.13103,34.17245 l -10.8232,11.35461 -0.17551,-105.30129 c -0.16655,-99.92912 0.023,-105.40751 3.71466,-107.38325 3.84942,-2.06014 673.06818,-2.57861 689.71731,-0.53435 6.02398,0.73966 8.0891,2.10461 9.06459,5.99129 1.49956,5.97471 2.19756,217.6776 0.72256,219.1526 -0.96964,0.96966 -35.55056,1.72549 -54.00783,1.18046 -7.74409,-0.22868 -9.41351,-1.24646 -14.39726,-8.7774 -8.96506,-13.54712 -32.41379,-35.13639 -46.06579,-42.41284 -7.567,-4.03317 -13.63278,-8.97127 -15.2941,-12.45078 -2.57196,-5.38685 -3.87296,-5.84343 -19.75645,-6.93338 -15.57519,-1.0688 -18.02555,-0.66676 -29.17655,4.78723 -6.69536,3.27471 -13.69056,5.95403 -15.54488,5.95403 -4.63078,0 -26.02342,10.80765 -36.22729,18.3022 -14.27171,10.48228 -20.04743,16.289 -27.76102,27.91005 -4.0909,6.16317 -9.54537,11.70423 -12.12105,12.31345 -5.07429,1.20019 -217.93302,2.54651 -227.5562,1.43927 z"
       id="path21342"
       inkscape:connector-curvature="0"
       transform="matrix(0.26458333,0,0,0.26458333,0,87)" />
    <path
       style="opacity:1;fill:#ca5c94;fill-opacity:0;stroke:#f0f700;stroke-width:4.93751049;stroke-linecap:round;stroke-linejoin:round;stroke-miterlimit:4;stroke-dasharray:9.87502094, 4.93751047;stroke-dashoffset:0;stroke-opacity:1;paint-order:normal"
       d="m 456.25508,550.0663 c -12.38898,-12.84786 -25.01105,-23.65516 -32.60915,-27.92069 -6.81801,-3.82759 -12.94758,-8.52272 -13.62127,-10.43363 -3.30336,-9.36985 -7.0023,-10.92118 -26.04013,-10.92118 -13.72852,0 -20.55331,1.02849 -26.7979,4.0384 -4.6081,2.22113 -12.68687,5.18214 -17.95283,6.58003 -11.64754,3.09193 -34.90818,15.05781 -43.61702,22.43773 -3.51064,2.97494 -9.14696,7.79353 -12.52517,10.70798 -3.3782,2.91444 -6.60236,4.83882 -7.16479,4.27639 -1.88888,-1.88888 -0.86405,-195.35886 1.04494,-197.26785 1.07683,-1.07683 129.60805,-1.93605 299.62711,-2.00297 380.60455,-0.14981 388.6944,-0.10845 392.02527,2.0038 2.22464,1.41074 2.97328,22.77603 3.67066,104.75465 0.48183,56.64036 0.34792,105.4142 -0.29757,108.38633 l -1.17362,5.40383 -27.21515,-0.0847 -27.21513,-0.0847 -19.18923,-20.21276 c -11.2604,-11.86104 -25.43432,-24.16885 -34.30357,-29.78724 -8.3129,-5.26595 -15.12375,-10.73759 -15.13522,-12.15918 -0.0343,-4.24378 -7.11346,-6.77039 -22.69293,-8.09925 -13.03643,-1.11195 -16.64388,-0.513 -31.65873,5.25639 -40.80834,15.68038 -64.40849,31.30083 -78.64793,52.05541 -3.63473,5.29776 -8.97379,11.55414 -10.25836,12.02085 -0.20894,0.0759 -51.60334,0.56008 -114.20973,1.07591 l -113.82978,0.93787 z"
       id="path21344"
       inkscape:connector-curvature="0"
       transform="matrix(0.26458333,0,0,0.26458333,0,87)" />
    <path
       style="opacity:1;fill:#ca5c94;fill-opacity:0;stroke:#f0f700;stroke-width:4.93751049;stroke-linecap:round;stroke-linejoin:round;stroke-miterlimit:4;stroke-dasharray:9.87502094, 4.93751047;stroke-dashoffset:0;stroke-opacity:1;paint-order:normal"
       d="m 463.99276,553.98229 c -16.01954,-16.88138 -28.51875,-27.74352 -40.92655,-35.56623 -5.16716,-3.25772 -9.93931,-7.62417 -10.60478,-9.70322 -2.4048,-7.51307 -10.59617,-10.49406 -29.04706,-10.57075 -15.15369,-0.063 -20.46169,1.00566 -38.39371,7.72964 -24.64496,9.24114 -39.82941,16.3883 -39.82941,18.74729 0,0.93703 -1.2315,1.70369 -2.73667,1.70369 -1.50517,0 -7.01049,3.80262 -12.23404,8.45025 -5.22356,4.64764 -10.28974,8.47743 -11.25818,8.51064 -1.87289,0.0642 -0.4392,-186.7467 1.44767,-188.63357 1.8861,-1.8861 683.88447,-1.84506 685.77262,0.0413 0.976,0.97506 2.11549,49.08676 2.5322,106.91489 l 0.75761,105.14205 h -25.49989 -25.49989 l -18.87477,-18.77418 c -10.38111,-10.3258 -25.71502,-23.73327 -34.07538,-29.79436 -8.36034,-6.0611 -15.72762,-12.39352 -16.37175,-14.07206 -1.58057,-4.11892 -14.78893,-7.54584 -29.13966,-7.5603 -13.74764,-0.0138 -29.67985,5.13513 -56.30923,18.19804 -21.98817,10.78618 -36.84081,22.33851 -51.13009,39.76882 l -10.0294,12.23404 -89.63302,0.1666 c -49.29817,0.0917 -100.01898,0.331 -112.71294,0.53192 l -23.07993,0.36531 z"
       id="path21346"
       inkscape:connector-curvature="0"
       transform="matrix(0.26458333,0,0,0.26458333,0,87)" />
    <path
       style="opacity:1;fill:#ca5c94;fill-opacity:0;stroke:#f0f700;stroke-width:4.93751049;stroke-linecap:round;stroke-linejoin:round;stroke-miterlimit:4;stroke-dasharray:9.87502094, 4.93751047;stroke-dashoffset:0;stroke-opacity:1;paint-order:normal"
       d="m 461.57423,547.62977 c -9.3617,-9.53281 -21.80851,-20.76703 -27.65958,-24.96494 -5.85106,-4.19791 -14.51872,-11.70186 -19.26147,-16.67546 -7.52982,-7.89632 -10.15846,-9.23472 -20.73169,-10.55576 -14.22547,-1.77735 -26.57885,-0.21185 -44.34112,5.6192 -15.81568,5.19202 -45.19458,18.73369 -46.16217,21.27761 -0.39007,1.02555 -1.68846,1.86463 -2.88531,1.86463 -1.19685,0 -5.9043,2.9528 -10.46099,6.56177 l -8.28491,6.56176 -0.13809,-12.41283 c -0.83954,-75.45984 0.38331,-161.49463 2.3404,-164.6613 1.63902,-2.65205 47.23118,-3.12076 334.42218,-3.43805 182.88845,-0.20206 335.11426,0.14067 338.2796,0.76161 4.89464,0.96019 5.92453,2.44669 6.88811,9.94185 0.62314,4.84707 1.57804,50.70115 2.122,101.89796 0.91968,86.55767 0.73506,93.10234 -2.63279,93.33086 -1.992,0.13517 -12.79611,0.22595 -24.00911,0.20174 l -20.38727,-0.044 -14.71911,-14.74469 c -8.09551,-8.10959 -23.33613,-21.80234 -33.86804,-30.42834 -10.53192,-8.62601 -19.69498,-16.46088 -20.36237,-17.41083 -3.27772,-4.66548 -31.02051,-7.90993 -43.7421,-5.11554 -14.14672,3.10744 -53.98064,19.83576 -53.98064,22.66927 0,0.88667 -2.53268,2.2478 -5.62819,3.02472 -3.09551,0.77692 -14.82424,10.62086 -26.06383,21.87541 l -20.43564,20.46282 -110.6383,0.86646 -110.6383,0.86647 z"
       id="path21348"
       inkscape:connector-curvature="0"
       transform="matrix(0.26458333,0,0,0.26458333,0,87)" />
    <path
       style="opacity:1;fill:#ca5c94;fill-opacity:0;stroke:#f0f700;stroke-width:4.93751049;stroke-linecap:round;stroke-linejoin:round;stroke-miterlimit:4;stroke-dasharray:9.87502094, 4.93751047;stroke-dashoffset:0;stroke-opacity:1;paint-order:normal"
       d="m 467.57728,549.23821 c -6.81232,-6.9418 -20.0456,-19.00676 -29.40731,-26.81103 -9.3617,-7.80426 -18.67077,-16.22238 -20.68681,-18.70692 -9.25779,-11.40914 -34.4709,-14.85149 -60.02571,-8.1953 -16.716,4.35396 -43.89307,16.44548 -60.56625,26.94691 l -13.61919,8.5779 1.31414,-83.49819 c 0.72277,-45.924 1.90437,-84.08865 2.62578,-84.81034 2.26394,-2.26481 669.54194,-2.72824 671.80362,-0.46657 1.22768,1.22769 2.48836,41.46885 3.13506,100.072 l 1.08164,98.0186 H 942.03238 920.8325 L 905.82114,545.7939 c -8.25625,-8.01425 -23.50427,-21.65787 -33.88446,-30.31915 -10.3802,-8.66128 -20.13828,-16.94459 -21.68464,-18.40736 -1.54634,-1.46276 -3.93996,-2.73283 -5.31915,-2.82236 -1.37917,-0.0895 -4.42249,-0.59817 -6.76292,-1.1303 -2.34042,-0.53213 -10.95744,-1.08107 -19.14893,-1.21987 -29.45964,-0.49915 -71.0729,19.94281 -102.55249,50.37756 l -18.71398,18.09285 -36.17528,0.0335 c -19.8964,0.0185 -68.89944,0.35466 -108.89564,0.74719 l -72.72035,0.71369 z"
       id="path21350"
       inkscape:connector-curvature="0"
       transform="matrix(0.26458333,0,0,0.26458333,0,87)" />
    <path
       style="opacity:1;fill:#ca5c94;fill-opacity:0;stroke:#f0f700;stroke-width:4.93751049;stroke-linecap:round;stroke-linejoin:round;stroke-miterlimit:4;stroke-dasharray:9.87502094, 4.93751047;stroke-dashoffset:0;stroke-opacity:1;paint-order:normal"
       d="m 483.91465,558.73453 c -1.75532,-0.58107 -10.39927,-7.87208 -19.20877,-16.20224 -25.88578,-24.47727 -49.05339,-44.72598 -54.61393,-47.73309 -10.54435,-5.70234 -29.15346,-7.07354 -46.84599,-3.45183 -9.11094,1.86503 -17.47492,4.27405 -18.58663,5.35337 -1.1117,1.07932 -3.3287,1.9624 -4.92668,1.9624 -3.40005,0 -34.90063,14.294 -36.58614,16.60167 -0.63071,0.86353 -4.01909,2.95601 -7.52973,4.64996 -3.51064,1.69395 -7.07912,3.42247 -7.92996,3.84115 -0.85084,0.41868 -1.0797,-24.44422 -0.50858,-55.25088 1.49963,-80.89177 2.57996,-100.10064 5.74268,-102.10814 3.27777,-2.08051 660.6331,-3.05894 662.70565,-0.98639 1.40013,1.40014 2.72893,43.24063 3.72545,117.30327 l 1.00204,74.47617 -19.13811,-0.28037 -19.1381,-0.28036 -12.23,-11.42985 C 876.4594,513.99539 850.4205,492.5081 843.92121,490.79673 c -11.90724,-3.13535 -41.53039,-1.53347 -54.73932,2.96005 -28.28883,9.62353 -55.76251,27.27404 -80.07592,51.44488 l -12.04272,11.97212 -103.91472,0.73966 c -57.15311,0.40682 -104.39345,0.9957 -104.97856,1.30863 -0.5851,0.31293 -2.5,0.0935 -4.25532,-0.48754 z"
       id="path21352"
       inkscape:connector-curvature="0"
       transform="matrix(0.26458333,0,0,0.26458333,0,87)" />
    <path
       style="opacity:1;fill:#ca5c94;fill-opacity:0;stroke:#f0f700;stroke-width:4.93751049;stroke-linecap:round;stroke-linejoin:round;stroke-miterlimit:4;stroke-dasharray:9.87502094, 4.93751047;stroke-dashoffset:0;stroke-opacity:1;paint-order:normal"
       d="m 479.65933,551.71461 c -2.92553,-2.48037 -10.10638,-9.03977 -15.95744,-14.57644 -9.3929,-8.8882 -19.24502,-17.67155 -39.95415,-35.61988 -11.24989,-9.75014 -20.56126,-13.54016 -36.24274,-14.75193 -21.68785,-1.67592 -51.11389,6.79855 -81.3873,23.43891 -7.61139,4.18374 -14.43473,7.6068 -15.16298,7.6068 -1.67769,0 0.86128,-132.74743 2.71449,-141.92421 l 1.37683,-6.81784 35.39176,-0.62897 c 19.46546,-0.34594 166.75284,-0.62898 327.30528,-0.62898 207.72366,0 292.58236,0.66843 294.23253,2.31764 1.55847,1.55755 2.74911,32.08568 3.63043,93.08511 l 1.31144,90.76747 -16.82057,-0.001 -16.82055,-10e-4 -9.57447,-9.18486 c -26.528,-25.44851 -53.60694,-48.25347 -63.88273,-53.79985 -9.77623,-5.27676 -29.64214,-6.45949 -49.13274,-2.92517 -26.39323,4.786 -61.72326,24.97056 -89.57872,51.17764 l -15.49092,14.57421 -50,0.16355 c -27.5,0.0899 -74.89362,0.6305 -105.31915,1.20121 -54.0309,1.01351 -55.44302,0.93265 -60.6383,-3.47209 z"
       id="path21354"
       inkscape:connector-curvature="0"
       transform="matrix(0.26458333,0,0,0.26458333,0,87)" />
    <path
       style="opacity:1;fill:#ca5c94;fill-opacity:0;stroke:#f0f700;stroke-width:4.93751049;stroke-linecap:round;stroke-linejoin:round;stroke-miterlimit:4;stroke-dasharray:9.87502094, 4.93751047;stroke-dashoffset:0;stroke-opacity:1;paint-order:normal"
       d="m 489.02621,552.1281 c -4.68296,-0.9144 -10.04365,-5.21002 -34.89879,-27.96508 -41.4594,-37.95637 -48.55925,-41.61135 -77.37678,-39.83332 -19.74164,1.21804 -41.8337,7.85153 -64.86255,19.47598 -8.60397,4.34309 -16.18689,7.35323 -16.85092,6.68919 -2.78448,-2.78447 0.0514,-134.35403 2.95849,-137.25966 1.48571,-1.48495 649.01378,-1.54916 650.49789,-0.0645 1.56885,1.56942 3.33589,46.58507 4.59421,117.03819 l 1.08402,60.6947 -10.12857,-0.38938 c -5.57071,-0.21416 -12.52217,-0.51504 -15.44771,-0.66862 -3.34795,-0.17576 -10.44427,-5.10333 -19.14893,-13.29671 -24.36964,-22.93821 -51.74715,-44.81027 -61.47679,-49.11415 -8.08728,-3.5774 -12.71032,-4.02936 -31.96762,-3.12527 -22.731,1.06718 -27.44151,2.33452 -51.23644,13.78496 -11.9427,5.74698 -28.60664,16.24763 -33.66262,21.21222 -1.54634,1.51841 -3.46166,2.76074 -4.25625,2.76074 -1.32352,0 -12.01607,9.25963 -26.26154,22.7422 l -5.66976,5.36612 -80.50045,0.99891 c -44.27525,0.5494 -89.68962,1.16651 -100.92081,1.37137 -11.23119,0.20485 -22.24183,0.0168 -24.46808,-0.41789 z"
       id="path21356"
       inkscape:connector-curvature="0"
       transform="matrix(0.26458333,0,0,0.26458333,0,87)" />
    <path
       style="opacity:1;fill:#ca5c94;fill-opacity:0;stroke:#f0f700;stroke-width:4.93751049;stroke-linecap:round;stroke-linejoin:round;stroke-miterlimit:4;stroke-dasharray:9.87502094, 4.93751047;stroke-dashoffset:0;stroke-opacity:1;paint-order:normal"
       d="m 475.37423,538.14985 c -7.59,-6.44739 -23.26115,-19.77761 -34.82478,-29.62269 -28.79517,-24.51574 -34.77433,-27.26071 -58.19673,-26.7175 -19.38932,0.44968 -40.90718,5.2874 -57.82046,12.99939 -5.3716,2.44931 -13.98118,6.26169 -19.1324,8.47197 l -9.36585,4.0187 1.60511,-59.10553 c 1.91688,-70.58623 1.75535,-68.53056 5.57416,-70.93712 1.76949,-1.1151 136.75608,-1.92808 322.72265,-1.94363 253.35032,-0.0212 319.71764,0.52221 319.85815,2.61892 0.0975,1.45512 0.50142,5.03929 0.89755,7.96482 0.39615,2.92553 1.33943,34.52128 2.09619,70.21277 0.75677,35.69149 1.62054,70.87766 1.91945,78.19149 l 0.54351,13.29787 h -11.16466 c -12.17481,0 -18.13947,-3.54073 -40.21402,-23.87176 -16.12621,-14.85252 -38.81296,-32.49269 -48.30298,-37.55818 -12.02191,-6.41694 -46.14508,-6.45615 -65.70732,-0.0755 -26.08702,8.50886 -54.19189,26.07872 -81.27968,50.8123 l -11.093,10.1289 -102.15744,1.41867 -102.15745,1.41866 z"
       id="path21358"
       inkscape:connector-curvature="0"
       transform="matrix(0.26458333,0,0,0.26458333,0,87)" />
    <path
       style="opacity:1;fill:#ca5c94;fill-opacity:0;stroke:#f0f700;stroke-width:4.93751049;stroke-linecap:round;stroke-linejoin:round;stroke-miterlimit:4;stroke-dasharray:9.87502094, 4.93751047;stroke-dashoffset:0;stroke-opacity:1;paint-order:normal"
       d="m 505.19125,522.2169 c -7.93849,-1.08834 -31.13785,-13.48149 -36.17021,-19.3222 -5.08278,-5.89922 -35.38268,-27.21237 -44.68085,-31.4288 -10.20871,-4.62934 -14.68897,-5.30516 -35.10639,-5.29558 -12.87234,0.006 -33.21808,0.67657 -45.21276,1.49006 -21.73706,1.47422 -21.80957,1.46295 -22.13098,-3.43994 -0.59464,-9.071 0.0219,-28.19185 1.40397,-43.54076 l 1.37023,-15.21751 8.88052,-1.07457 c 4.88428,-0.59101 138.41027,-0.92399 296.72443,-0.73994 245.53968,0.28545 288.11715,0.77682 289.70306,3.34339 1.02255,1.65481 2.49872,10.27184 3.28038,19.14893 1.61873,18.38349 2.28022,84.80566 0.85871,86.22715 -0.73539,0.7354 -26.04417,-17.91842 -41.66483,-30.70903 -4.40651,-3.60817 -16.24715,-9.6724 -27.25528,-13.95887 -8.62668,-3.35917 -15.86849,-4.13325 -38.29787,-4.09371 -17.55826,0.031 -30.76768,1.10267 -36.17022,2.9346 -10.59493,3.59258 -36.16314,15.8916 -44.68085,21.49273 -3.51063,2.30855 -7.81915,4.92668 -9.57446,5.81808 -1.75532,0.89139 -10.17883,5.82622 -18.7189,10.96628 -18.90785,11.38016 -32.03519,14.62339 -65.29466,16.13166 -41.77151,1.89427 -126.9553,2.6812 -137.26304,1.26803 z"
       id="path21382"
       inkscape:connector-curvature="0"
       transform="matrix(0.26458333,0,0,0.26458333,0,87)" />
    <path
       style="opacity:1;fill:#ca5c94;fill-opacity:0;stroke:#f0f700;stroke-width:4.93751049;stroke-linecap:round;stroke-linejoin:round;stroke-miterlimit:4;stroke-dasharray:9.87502094, 4.93751047;stroke-dashoffset:0;stroke-opacity:1;paint-order:normal"
       d="m 491.36146,512.9363 c -8.19149,-4.06222 -16.80851,-9.19048 -19.14893,-11.39615 -8.21076,-7.738 -34.06997,-26.24057 -36.70213,-26.26081 -1.46277,-0.0113 -2.65958,-0.89872 -2.65958,-1.97214 0,-1.07343 -4.54787,-3.70641 -10.10638,-5.85107 -8.82146,-3.40361 -15.75034,-3.83394 -54.49812,-3.38467 l -44.39173,0.5147 1.45657,-25.73143 c 0.80111,-14.15228 1.97652,-27.08639 2.61201,-28.74246 0.98897,-2.57721 42.58167,-2.97971 288.67985,-2.79361 158.13842,0.11959 290.52859,0.70753 294.20038,1.30653 8.42572,1.37454 8.83725,3.62379 10.69047,58.43039 l 1.38234,40.88054 -7.24675,-5.13185 c -3.9857,-2.82251 -15.11257,-11.05117 -24.7264,-18.2859 -26.94994,-20.28075 -35.54298,-22.95448 -74.00968,-23.02815 -17.55319,-0.0336 -33.82979,0.80157 -36.17022,1.85598 -2.34042,1.05441 -5.21276,2.14739 -6.38297,2.42883 -3.249,0.7814 -33.48454,15.39243 -38.22215,18.47048 -31.07149,20.18725 -49.214,28.44022 -68.94185,31.36143 -8.62107,1.27656 -48.35511,2.85972 -88.29788,3.51811 l -72.62323,1.19709 z"
       id="path21384"
       inkscape:connector-curvature="0"
       transform="matrix(0.26458333,0,0,0.26458333,0,87)" />
    <path
       style="opacity:1;fill:#ca5c94;fill-opacity:0;stroke:#f0f700;stroke-width:4.93751049;stroke-linecap:round;stroke-linejoin:round;stroke-miterlimit:4;stroke-dasharray:9.87502094, 4.93751047;stroke-dashoffset:0;stroke-opacity:1;paint-order:normal"
       d="m 493.47216,509.99323 c -8.18216,-4.18335 -20.62134,-12.08927 -27.64261,-17.56871 -19.91148,-15.539 -36.88347,-25.98723 -47.31114,-29.12549 -6.77836,-2.03999 -21.39138,-2.78477 -50.27145,-2.56219 l -40.71528,0.3138 0.57477,-12.57673 c 0.31613,-6.9172 1.12822,-18.08205 1.80465,-24.81077 l 1.22988,-12.23404 19.47194,-0.18452 c 10.70957,-0.10148 140.99518,-0.1398 289.52356,-0.0851 223.28996,0.0822 270.54722,0.59493 272.9136,2.96132 1.87194,1.87193 3.22832,10.54958 3.921,25.08515 0.58249,12.22276 1.50074,31.79766 2.0406,43.49979 0.53985,11.70213 0.28408,20.29927 -0.56837,19.10475 -3.05925,-4.28677 -40.04451,-30.27794 -49.42227,-34.7312 -14.30122,-6.79127 -25.20347,-8.46855 -55.70619,-8.57022 -23.98188,-0.0799 -29.39128,0.56885 -40.75994,4.88858 -14.23992,5.41071 -35.46402,16.20077 -49.85634,25.34631 -32.6083,20.72081 -47.73789,24.45264 -105.06904,25.91603 -23.80915,0.60774 -58.13741,1.51772 -76.28503,2.02219 l -32.99569,0.91721 z"
       id="path21386"
       inkscape:connector-curvature="0"
       transform="matrix(0.26458333,0,0,0.26458333,0,87)" />
    <path
       style="opacity:1;fill:#ffffff;fill-opacity:1;stroke:none;stroke-width:0.61399996;stroke-linecap:round;stroke-linejoin:round;stroke-miterlimit:4;stroke-dasharray:1.22799998, 0.61399999000000005;stroke-dashoffset:0;stroke-opacity:0.97989951;paint-order:normal"
       id="path21488"
       d="m 35.176573,163.91917 c -1.325988,0.60208 -2.77628,0.85082 -4.120975,1.38529 -1.305832,0.57571 -2.636494,1.04304 -3.885769,1.74203 0.352923,-0.32958 -2.047343,1.04577 -1.549348,0.75833 2.060428,-1.18923 8.237158,-4.76441 6.191513,-3.54992 -3.159024,1.8755 -6.090416,3.86605 -9.436607,5.24058 -1.556651,1.0038 -3.358867,1.56019 -4.937376,2.5075 -2.52826,1.39262 -6.546124,3.62679 5.028641,-2.90786 1.24382,-0.70221 -1.156883,0.78164 -1.500638,1.07229 -0.856168,0.93678 -1.360831,2.11774 -1.869323,3.26387 -0.568702,1.27329 -1.289608,2.46468 -1.815369,3.75807 -0.648916,1.57265 -1.263489,3.15815 -1.746729,4.79018 -0.435427,1.27265 -0.755067,2.57044 -1.045483,3.88125 -0.295029,1.10511 -0.676096,2.18213 -0.926947,3.29834 -0.228076,1.36226 -0.252797,2.7416 -0.446302,4.1085 -0.121226,1.34531 -0.572512,2.61252 -0.994437,3.8835 -0.468149,1.11602 -0.759848,2.27604 -1.026085,3.45169 -0.482582,1.32147 -0.855067,2.64978 -1.055328,4.0432 -0.096321,1.02769 -0.040055,0.51262 -0.1691872,1.54518 0,0 -7.3972403,3.63428 -7.3972403,3.63428 v 0 c 0.1690689,-0.99577 0.1062394,-0.48654 0.1836502,-1.52826 0.1374322,-1.40855 0.3610543,-2.81895 0.9839801,-4.10582 0.2762882,-1.18678 0.4346644,-2.40663 0.9901414,-3.51157 0.3856011,-1.25038 0.9508276,-2.45439 1.0749167,-3.77279 0.2117881,-1.3733 0.2690391,-2.75156 0.4244956,-4.13193 0.1725271,-1.15324 0.5325904,-2.23911 0.8584086,-3.35133 0.4534487,-1.27469 0.5311484,-2.68251 1.1397194,-3.91809 0.4221919,-1.65306 1.023548,-3.25767 1.6656822,-4.83709 0.4680623,-1.32548 1.1221503,-2.55086 1.7906353,-3.78282 0.49552,-1.21679 1.042868,-2.4077 1.722796,-3.53316 0.441987,-0.54308 0.871171,-0.90601 1.478687,-1.26324 3.009005,-1.76934 5.983314,-3.59813 9.06069,-5.24559 1.658912,-0.79836 3.32266,-1.58481 4.954033,-2.44002 0.279932,-0.13349 0.563126,-0.26034 0.839801,-0.40045 0.249219,-0.12621 0.978654,-0.53907 0.737378,-0.39827 -2.065316,1.20523 -8.286852,4.77675 -6.209843,3.59178 3.150561,-1.79745 6.159686,-3.76379 9.426287,-5.30797 1.293972,-0.62845 2.639534,-1.13344 3.977169,-1.66031 1.43046,-0.42703 2.834262,-0.92995 4.264009,-1.35168 0,0 -6.659647,5.04231 -6.659647,5.04231 z"
       inkscape:connector-curvature="0" />
    <path
       style="opacity:1;fill:#ffffff;fill-opacity:1;stroke:none;stroke-width:0.61399996;stroke-linecap:round;stroke-linejoin:round;stroke-miterlimit:4;stroke-dasharray:1.22799998, 0.61399999;stroke-dashoffset:0;stroke-opacity:0.97989951;paint-order:normal"
       id="path21490"
       d="m 30.135293,161.59296 c -0.283152,1.74472 -0.814063,3.4298 -1.367973,5.10338 -0.444198,1.54454 -1.108752,3.01126 -1.966823,4.36723 -0.530651,0.93479 -1.10779,1.82266 -1.853853,2.59764 -0.727718,0.77896 -1.461527,1.55133 -2.195522,2.32438 -0.923594,0.7526 -1.850996,1.47256 -2.669101,2.34517 -0.761991,0.98632 -1.309312,2.11855 -1.906888,3.2081 -0.726617,1.3078 -1.370359,2.64248 -1.912967,4.03648 -0.05174,0.18512 -0.118279,0.36674 -0.155211,0.55537 -0.02553,0.13039 -0.04053,0.26481 -0.03132,0.39736 0.02467,0.35512 0.292346,-0.087 0.164986,-0.0238 -6.8979224,3.42454 -8.9168136,5.31362 -6.2523179,2.95357 1.7822129,-2.4494 3.3775549,-5.02622 5.1505679,-7.48772 1.390521,-1.68994 2.769301,-3.37932 3.953446,-5.22163 0.717054,-1.1668 1.450921,-2.32393 2.258371,-3.43049 0.510176,-0.80392 1.195421,-1.72911 1.154318,-2.73439 0.837047,3.12254 -0.04233,0.57211 7.111447,-3.23345 0.16927,-0.09 -0.320733,0.21267 -0.463354,0.34081 -0.178364,0.16026 -0.336878,0.34163 -0.495922,0.52108 -0.434528,0.49026 -0.691136,0.84437 -1.092814,1.36749 -0.955735,1.52095 -1.808524,3.12335 -2.606686,4.73535 -0.591652,1.4154 -0.873262,2.92707 -1.47281,4.33989 -0.589605,1.30088 -1.348045,2.51573 -2.098435,3.72803 -0.208695,0.31884 -0.397851,0.58213 -0.565192,0.91923 -0.03802,0.0766 -0.02138,0.28626 -0.09276,0.23918 -0.109364,-0.0721 0.005,-0.42936 -0.114605,-0.37594 -5.932994,2.64946 -9.448324,5.33189 -6.807367,3.34434 1.230839,-1.59066 2.117118,-3.42189 3.005886,-5.21811 1.361795,-2.44282 2.895648,-4.78833 4.561227,-7.03392 1.231524,-1.69111 2.657197,-3.22714 4.059616,-4.77554 2.670334,-3.00415 6.40924,-4.76709 10.034365,-6.43045 2.632782,-1.03544 6.627352,-3.62221 -5.394028,3.2202 -1.312667,0.74715 1.171858,-0.71781 1.409549,-0.87644 0.160292,-0.11348 0.247123,-0.28561 0.328313,-0.002 0.04254,0.14837 0.11738,0.31161 0.06834,0.45796 -0.04287,0.12791 -0.427537,0.32596 -0.309287,0.26102 5.864415,-3.22015 8.798245,-5.14304 5.973032,-3.30912 -1.242917,0.87313 -2.422795,1.8386 -3.593547,2.80657 -1.361461,1.12872 -2.708206,2.27051 -4.029898,3.44542 -0.977299,0.81283 -1.781609,1.79813 -2.627953,2.73959 -0.774345,0.95658 -1.404747,2.00135 -2.005531,3.07114 -0.587879,0.99323 -1.214218,1.96351 -1.845752,2.92952 -0.260353,0.37638 -0.543894,0.73118 -0.836984,1.08161 -0.200251,0.23942 -0.242674,0.32337 -0.260351,0.30389 -0.06887,-0.0759 -0.07192,-0.19198 -0.107874,-0.28797 -2.442071,1.21752 -4.880622,2.44213 -7.326213,3.65257 -0.08583,0.0425 0.177486,-0.0815 0.246091,-0.14829 0.08868,-0.0864 0.152914,-0.19558 0.216173,-0.30199 0.316894,-0.53308 0.574321,-1.11615 0.834616,-1.67752 2.086488,-5.03157 -2.675365,-0.70721 7.868479,-5.86336 -1.1556,0.79565 -1.696663,2.30836 -2.17191,3.57623 -0.531871,1.48514 -0.575564,3.06946 -0.867738,4.60453 -0.370876,1.33992 -0.923806,2.63083 -1.468677,3.9094 -0.54967,1.29038 -1.207703,2.53086 -1.890116,3.75492 -0.686702,1.20648 -1.317822,2.44676 -1.9046,3.70492 -0.47752,1.1968 -0.804754,2.44815 -1.162737,3.6846 -0.309768,1.46068 -0.975131,2.79899 -1.429393,4.21233 -0.333522,1.33586 -0.515377,2.70792 -0.727128,4.06822 -0.125329,1.482 -0.408172,2.93892 -0.635694,4.40658 -0.256808,1.33533 -0.534054,2.66314 -0.684495,4.01564 -0.108861,1.13324 -0.116963,2.27258 -0.123609,3.40999 -0.01401,1.0956 0.06247,2.19167 -0.111364,3.2771 -0.227053,0.97359 -0.336385,1.9639 -0.397674,2.9598 -0.151591,1.08232 -0.390222,2.14326 -0.5010102,3.23356 -0.1835637,1.16688 -0.4295225,2.31911 -0.5579721,3.49459 -0.1036937,1.115 -0.1116132,2.2357 -0.1189416,3.35456 -0.016624,1.42835 -0.2971165,2.83678 -0.4224489,4.25949 -0.1284493,1.53003 -0.1404844,3.06642 -0.1466233,4.60083 -9.525e-4,1.17782 0.00396,2.35564 0.00647,3.53345 0,0 -7.3899186,3.76644 -7.3899186,3.76644 v 0 c -2.484e-4,-1.18446 -0.00119,-2.36897 0.01305,-3.55337 0.023514,-1.5588 0.068413,-3.11727 0.1578415,-4.67383 0.1078469,-1.39338 0.2992097,-2.78194 0.3889086,-4.1707 0.00351,-1.14188 0.00569,-2.28502 0.086931,-3.42461 0.1024495,-1.17748 0.2845386,-2.34219 0.5663201,-3.49114 0.084071,-1.07704 0.1785559,-2.16065 0.5015058,-3.19729 0.039921,-1.02598 0.096494,-2.05657 0.3308474,-3.06007 0.2457373,-1.04173 0.2302375,-2.07626 0.2016233,-3.14621 0.00331,-1.16355 0.00573,-2.3287 0.098834,-3.48932 0.1319795,-1.3688 0.3767513,-2.71784 0.7018303,-4.0543 0.1764083,-1.48166 0.5682245,-2.92344 0.6363473,-4.41837 0.1998874,-1.39379 0.3935973,-2.7874 0.6596903,-4.16829 0.4072994,-1.43658 1.1339023,-2.73732 1.428178,-4.20273 0.3704706,-1.2656 0.6995427,-2.54267 1.1279547,-3.79034 0.543401,-1.29022 1.1853093,-2.54424 1.8683764,-3.7637 0.657742,-1.22811 1.375525,-2.42457 1.93129,-3.70178 0.570961,-1.21388 1.010891,-2.49298 1.506344,-3.73645 0.377268,-1.56654 0.475257,-3.17466 0.899048,-4.7339 0.459744,-1.40039 1.029918,-2.74753 1.793638,-4.01262 2.56811,-1.2773 5.076383,-2.68273 7.70433,-3.8319 0.130791,-0.0572 0.176843,0.23019 0.224266,0.36484 0.328055,0.93142 -0.224277,1.97467 -0.502223,2.83466 -0.20964,0.59216 -0.492747,1.11611 -0.728955,1.69228 -1.422504,3.46989 2.84657,-0.0385 -7.893658,4.6719 -0.62604,-1.11148 0.152772,-1.38751 0.736767,-2.24375 0.760529,-0.86573 1.264231,-1.9272 1.917799,-2.86877 0.36382,-0.55311 0.605326,-1.14391 0.94446,-1.70921 0.712081,-1.18696 -0.02942,0.12986 0.711094,-0.95942 0.107412,-0.158 0.185509,-0.33405 0.278263,-0.50107 0.788482,-1.03855 1.729695,-1.97123 2.640087,-2.90181 1.360403,-1.10963 2.613314,-2.34715 4.004,-3.42314 1.127462,-1.04015 2.385309,-1.92049 3.556374,-2.90562 2.879568,-1.99294 2.106641,-1.48261 8.27365,-4.81819 0.606928,-0.32827 1.26361,0.41386 1.26266,0.97602 -2.22e-4,0.13036 -0.127902,0.22719 -0.191852,0.34078 -0.441346,0.39052 -0.896426,0.68123 -1.406554,0.97565 -3.09922,1.78871 -5.673952,3.58535 -8.791678,4.92242 -2.77021,1.42215 -1.573546,0.82233 5.913364,-3.52439 0.17101,-0.0993 -0.334164,0.21278 -0.489485,0.33516 -0.322437,0.25406 -0.61387,0.5452 -0.917731,0.82121 -0.161801,0.14696 -0.321037,0.29673 -0.481557,0.44509 -1.406949,1.59432 -2.980182,3.04986 -4.229431,4.78055 -1.706594,2.15939 -3.190686,4.46672 -4.557135,6.85586 -0.87684,1.81197 -1.823487,3.58645 -2.78434,5.35386 -1.885171,3.31443 -10.53028,7.0487 -7.643676,2.41389 0.829768,-1.12448 1.499628,-2.37456 2.144012,-3.61263 0.734559,-1.37475 1.032301,-2.8935 1.534021,-4.35758 0.728214,-1.6853 1.73455,-3.24125 2.53357,-4.89372 1.976231,-2.67234 6.814872,-9.71017 9.913688,-6.09854 0.105799,1.19212 -0.401379,2.31596 -1.017678,3.30961 -0.796602,1.12466 -1.59386,2.24115 -2.312339,3.41962 -0.360373,0.52845 -0.673611,1.08821 -1.037725,1.6141 -0.90879,1.31255 -2.015087,2.48461 -3.038759,3.70433 -1.803637,2.4058 -3.48484,4.87921 -4.996568,7.47869 -0.163093,0.26401 -0.222267,0.6339 -0.489281,0.79203 -1.295811,0.76738 -9.4498079,7.47577 -8.2654763,2.00684 0.5197073,-1.42073 1.0908794,-2.80356 1.8680753,-4.10531 0.518587,-1.16549 1.212422,-2.25188 1.808234,-3.38069 0.722696,-0.95739 1.580342,-1.81461 2.624922,-2.41838 0.792698,-0.70613 1.481658,-1.52477 2.189482,-2.31237 0.772884,-0.72941 1.490394,-1.47976 1.957904,-2.4512 0.879895,-1.30994 1.702387,-2.65176 2.102783,-4.20133 0.555175,-1.60566 1.183464,-3.21998 1.311238,-4.9284 0,0 7.488595,-3.66113 7.488595,-3.66113 z"
       inkscape:connector-curvature="0" />
    <path
       style="opacity:1;fill:#ffffff;fill-opacity:1;stroke:none;stroke-width:0.61399996;stroke-linecap:round;stroke-linejoin:round;stroke-miterlimit:4;stroke-dasharray:1.22799998, 0.61399999;stroke-dashoffset:0;stroke-opacity:0.97989951;paint-order:normal"
       id="path21492"
       d="m 36.317221,161.5569 c 1.118135,-0.17139 2.177825,-0.61117 3.215735,-1.04761 1.097495,-0.54743 2.301852,-0.94105 3.489765,-1.26372 1.166942,-0.28418 2.369491,-0.3287 3.564429,-0.35547 0.848103,-0.0848 1.619464,0.0434 2.418943,0.31491 0,0 -6.82792,4.68821 -6.82792,4.68821 v 0 c -0.757216,-0.14827 -1.512906,-0.15289 -2.2831,-0.1046 -1.155814,0.0566 -2.314641,0.15797 -3.423179,0.51461 -1.177171,0.38827 -2.344277,0.80592 -3.462785,1.34257 -1.081815,0.42584 -2.212715,0.7243 -3.351535,0.95341 0,0 6.659647,-5.04231 6.659647,-5.04231 z"
       inkscape:connector-curvature="0" />
    <path
       style="opacity:1;fill:#ffffff;fill-opacity:1;stroke:none;stroke-width:0.61399996;stroke-linecap:round;stroke-linejoin:round;stroke-miterlimit:4;stroke-dasharray:1.22799998, 0.61399999;stroke-dashoffset:0;stroke-opacity:0.97989951;paint-order:normal"
       id="path21494"
       d="m 16.106913,162.0226 c -0.06336,1.6718 -0.06815,3.34545 -0.09462,5.01823 0.06627,1.92976 -0.170486,3.89994 0.09271,5.82068 -10.9145857,5.79049 -6.4491718,5.82422 -7.670925,1.95373 -0.41871,-1.16707 -0.8859973,-2.30304 -1.1624276,-3.5154 -0.1907817,-0.56246 0.00735,-2.4309 -0.8494993,-2.48388 -1.0232995,2.77936 -0.072971,0.0195 6.8967579,-3.61705 0.127553,-0.0666 -0.186857,0.22511 -0.239737,0.3589 -0.341417,0.86387 -0.317593,1.92866 -0.382993,2.83362 -0.206516,2.85994 -0.03273,5.70905 0.896756,8.42775 0.160843,0.35049 0.280395,0.72305 0.482529,1.05147 0.116474,0.18924 0.613591,0.80091 0.975297,0.78317 0.139952,-0.007 0.46666,-0.30894 0.343068,-0.24292 -6.8088057,3.63734 -8.765324,5.42512 -6.3885953,3.32274 0.7056663,-1.50228 1.0250433,-3.15291 1.5188023,-4.73357 0.563043,-1.63493 0.801858,-3.34218 0.928906,-5.05854 0.0587,-0.75662 0.02939,-1.53388 0.23057,-2.27352 0.785145,-2.88662 7.16127,-4.57645 7.5755,-4.77882 0.199907,-0.0977 0.314095,0.31519 0.471142,0.4728 0.684743,0.99429 0.984583,2.13289 1.197816,3.30426 0.294121,1.08016 0.668777,2.16982 1.433112,3.00638 0.583173,0.4207 1.167724,0.44654 1.76522,0.0298 0.143811,-0.1003 0.545778,-0.43534 0.39253,-0.35015 -2.235357,1.24268 -4.432855,2.55228 -6.649282,3.82841 0.850515,-0.62421 1.467323,-1.65118 1.552783,-2.70902 -0.07645,-0.72957 -0.720075,-1.04593 -1.193551,-1.51416 -0.192708,-0.19057 -0.79886,-0.87581 -0.972916,-1.0707 -0.93031,-1.02191 -2.103242,-1.39828 -3.440666,-1.13836 -0.241373,0.0455 -0.894692,0.13845 -1.14427,0.28624 -0.07934,0.047 -0.23734,0.27803 -0.162987,0.2235 4.846923,-3.55475 4.491227,-4.66064 7.941839,-5.46808 1.588168,-0.3837 3.14143,-0.78016 4.686159,-1.32286 0.696243,-0.2734 1.440027,-0.36237 2.157579,-0.55828 0.139785,-0.0382 0.532929,-0.21485 0.41429,-0.13165 -6.778305,4.75349 -4.220454,4.31926 -7.26712,4.78927 -1.595332,-0.15842 -3.122775,0.34149 -4.675276,0.62181 -2.912051,0.91551 -6.5538465,3.75205 5.483312,-3.34185 0.04611,-0.0272 -0.113468,-0.0293 -0.142284,-0.0744 -0.218376,-0.34182 -0.152688,-0.31105 0.01862,-0.57445 0.512199,-0.004 0.883254,-0.28733 1.309901,-0.52052 0.164544,-0.0899 0.666673,-0.34312 0.504235,-0.24944 -7.305672,4.21361 -8.76098,5.17516 -6.330809,3.58505 0.05648,-0.0354 0.105809,-0.12605 0.169445,-0.1062 0.373257,0.11641 -0.09734,0.26023 -0.109918,0.2608 -0.58927,0.0267 -1.240098,-0.1065 -1.830736,-0.13705 -1.082601,0.14644 -2.271512,0.12873 -3.285097,0.59925 -0.255757,0.11873 -0.948706,0.6085 -0.701929,0.47208 2.210661,-1.22202 4.397385,-2.48685 6.596077,-3.73027 -0.06272,0.0591 -0.102029,0.17377 -0.188164,0.17745 -0.148012,0.006 -0.160356,-0.32829 -0.063,-0.43996 4.76e-4,-5.2e-4 0.948779,-0.37353 0.98641,-0.38772 0.639458,-0.14109 1.301939,-0.15433 1.944588,-0.26849 2.493815,-0.443 8.753469,-4.65365 -5.384362,3.31505 3.042705,-1.70866 6.62627,-6.37132 9.949127,-4.46541 0.451732,0.24186 0.894746,0.45677 1.321435,0.74125 0,0 -6.988707,4.50825 -6.988707,4.50825 v 0 c -0.407912,-0.23003 -0.823178,-0.44307 -1.255644,-0.62425 -0.639006,-0.12376 -1.155436,0.2096 -1.082564,0.16668 11.804312,-6.95142 8.160677,-4.90928 5.79425,-3.30724 -2.541579,1.44224 -5.057397,2.93085 -7.624738,4.32671 -0.857994,0.46649 -2.354566,0.22222 -3.26176,0.70541 -0.970908,0.24569 -2.2681416,0.0438 -1.8070488,-1.29563 4.6743018,-2.85709 6.8200078,-5.3583 11.7618038,-5.30132 0.993587,0.0796 3.139767,0.10286 2.774221,1.63809 -2.175549,2.57538 -0.265066,0.39478 -7.870019,4.735 -0.645391,0.36833 -1.373367,0.51257 -2.109743,0.4818 -0.174027,-0.0857 -0.381062,-0.12391 -0.522082,-0.25711 -0.24774,-0.23402 -0.646252,-0.77842 -0.356701,-0.95813 3.849103,-2.38906 5.386207,-3.87052 8.831474,-4.60788 1.639941,-0.32881 3.287654,-0.72658 4.97223,-0.49042 5.484209,1.8433 -6.52042,5.14558 -8.621372,5.75318 -1.575473,0.52142 -3.196344,0.84848 -4.789192,1.31015 -0.757816,0.1941 -1.094706,0.28351 -1.051107,0.24561 5.282726,-4.59194 3.929213,-4.84702 7.671041,-5.23798 1.517421,0.049 2.815383,0.61494 3.833731,1.77297 0.905015,0.96757 2.132504,1.76996 2.513259,3.08959 0.07982,1.29273 -0.492335,2.41422 -1.222233,3.45803 -2.512427,1.47367 -5.006966,2.97827 -7.537282,4.421 -0.975161,0.55602 -2.055261,0.0268 -2.803921,-0.62826 -0.800629,-0.98936 -1.322133,-2.17055 -1.646239,-3.39813 -0.147554,-0.93681 -0.32451,-1.89218 -0.920331,-2.6617 -0.418405,2.79184 -0.07139,0.19992 6.828323,-3.95636 0.113358,-0.0683 -0.26239,0.0922 -0.345941,0.19479 -0.460844,0.56606 -0.302442,1.48128 -0.373241,2.13512 -0.11845,1.76937 -0.303477,3.53664 -0.844046,5.23579 -0.52748,1.61203 -0.958819,3.24772 -1.387453,4.88821 -0.0803,0.24047 -0.02603,0.58686 -0.240902,0.72139 -0.233293,0.14607 -6.4159168,6.326 -8.7904218,3.54705 -0.5797423,-0.67849 -0.6708158,-1.08269 -1.0386737,-1.92624 -0.3611819,-1.08829 -0.5584669,-1.54875 -0.7527036,-2.70055 -0.3314636,-1.96554 -0.2647262,-3.99456 -0.3135889,-5.97787 0.067237,-3.39944 0.0569,-11.80929 8.012163,-7.75992 0.885218,0.84134 1.033257,1.92184 1.128708,3.09371 0.234549,1.19286 0.683866,2.29793 1.118431,3.42845 1.500451,4.14993 -1.019277,2.73288 -7.0652894,5.91104 -0.023138,0.0122 0.023683,-0.0466 0.035524,-0.0699 0.2353493,-1.95733 0.047419,-3.95038 0.092714,-5.91516 -0.026382,-1.64064 -0.030595,-3.28221 -0.094618,-4.9218 0,0 7.4443234,-3.79308 7.4443234,-3.79308 z"
       inkscape:connector-curvature="0" />
    <rect
       style="opacity:1;fill:#66ffe4;fill-opacity:0;stroke:none;stroke-width:0.61399996;stroke-linecap:round;stroke-linejoin:round;stroke-miterlimit:4;stroke-dasharray:1.22799998, 0.61399999;stroke-dashoffset:0;stroke-opacity:0.97989951;paint-order:normal"
       id="rect21698"
       width="54.324024"
       height="39.62188"
       x="152.10158"
       y="200.47414" />
    <path
       style="opacity:1;fill:#ffffff;fill-opacity:0;stroke:none;stroke-width:0.61399996;stroke-linecap:round;stroke-linejoin:round;stroke-miterlimit:4;stroke-dasharray:1.22799998, 0.61399999000000005;stroke-dashoffset:0;stroke-opacity:1;paint-order:normal"
       id="path21720"
       d="m 17.795743,178.9109 c -0.102334,1.99282 -0.09528,3.9903 -0.09994,5.98539 0.01071,2.12539 0.0172,4.25081 0.0217,6.37622 -9.53e-4,1.79982 0.0212,3.59949 0.01766,5.39932 0.01395,1.5942 0.003,3.18841 0.0062,4.78263 0.0076,1.34095 0.01789,2.68188 0.02331,4.02285 0.05853,1.5004 -0.0921,2.98851 -0.258767,4.47674 -0.225605,1.79996 -0.277244,3.61448 -0.334549,5.42565 -0.05046,2.22461 0.05352,4.44656 -0.166782,6.66287 -0.402797,2.44583 -0.684985,4.90266 -0.860002,7.37447 -0.13349,2.35455 -0.152505,4.71313 -0.130791,7.07069 0.107107,1.84025 -0.11465,3.66361 -0.290138,5.4907 -0.148446,1.48154 -0.18991,2.96955 -0.208285,4.45736 0.0017,1.11111 -0.07502,2.22036 0.131147,3.31663 0,0 -7.3347521,3.91895 -7.3347521,3.91895 v 0 c -0.2377909,-1.15748 -0.2047182,-2.31606 -0.1685962,-3.49456 0.031153,-1.51424 0.073641,-3.03063 0.2196734,-4.53879 0.1843104,-1.81254 0.4591405,-3.61905 0.3780298,-5.44694 0.033855,-2.37698 0.020534,-4.75547 0.1364105,-7.13042 0.1474959,-2.4852 0.4448085,-4.95921 0.8628506,-7.41363 0.2507237,-2.17912 0.078971,-4.38031 0.1470388,-6.57153 0.00456,-1.82629 0.051761,-3.65391 0.2442812,-5.47147 0.177206,-1.45367 0.337824,-2.8979 0.251092,-4.36534 0.0054,-1.34888 0.01575,-2.69773 0.02331,-4.0466 0.0032,-1.59631 -0.0078,-3.19262 0.0062,-4.78892 -0.0036,-1.80583 0.01863,-3.6115 0.01766,-5.41732 0.0045,-2.13278 0.01102,-4.26558 0.0217,-6.39834 -0.0046,-1.96109 0.0041,-3.92485 -0.09994,-5.88354 0,0 7.444324,-3.79307 7.444323,-3.79307 z"
       inkscape:connector-curvature="0" />
    <path
       style="opacity:1;fill:#ffffff;fill-opacity:0;stroke:none;stroke-width:0.61399996;stroke-linecap:round;stroke-linejoin:round;stroke-miterlimit:4;stroke-dasharray:1.22799998, 0.61399999;stroke-dashoffset:0;stroke-opacity:1;paint-order:normal"
       id="path21722"
       d="m 6.9123697,259.76249 c -0.7819684,-2.40097 -0.9342848,-4.93627 -1.363834,-7.40881 -0.4807317,-2.62589 -1.1518926,-5.20494 -1.5642613,-7.84391 -0.3886478,-1.63073 -0.6765557,-3.27405 -0.7843012,-4.94698 -0.084172,-1.56278 -0.1825088,-3.12319 -9.525e-4,-4.68094 0.14249,-1.19918 0.5386596,-2.34354 0.7631472,-3.52743 0.1723181,-1.62065 0.7777898,-3.14482 1.2924054,-4.67868 0.474617,-1.83902 1.0951358,-3.62888 1.6688327,-5.43744 0.547457,-1.64784 1.0811634,-3.30042 1.5816945,-4.9631 0.6177803,-1.77018 0.9181512,-3.61882 1.3217691,-5.44253 0.2361744,-1.16183 0.5173264,-2.34997 0.4682654,-3.54434 2.497711,-1.20283 4.925074,-2.56426 7.493133,-3.6085 0.175415,-0.0713 -0.0088,0.37863 -0.01546,0.56788 -0.01081,0.307 -0.0263,0.61382 -0.03697,0.92082 -0.05171,1.48749 -0.07503,2.97406 -0.08645,4.46234 -0.02861,3.77093 -0.05751,7.54197 -0.03519,11.313 0.142047,3.08091 0.706066,6.11479 1.216183,9.14903 0.359371,2.08886 0.515673,4.20739 0.555234,6.32466 0.02154,1.93154 0.0318,3.86315 0.05037,5.79473 -0.05076,1.36819 0.0085,2.68355 0.369625,4.00474 0.264348,0.94688 0.561794,1.88135 0.795765,2.83634 0,0 -7.24708,3.91458 -7.24708,3.91458 v 0 c -0.231716,-0.94659 -0.543307,-1.86447 -0.803305,-2.80281 -0.39643,-1.39935 -0.590668,-2.75763 -0.447907,-4.21836 0.02588,-1.9334 0.04834,-3.86735 0.0083,-5.80072 -0.06188,-2.09296 -0.126399,-4.18937 -0.441138,-6.26343 -0.451556,-3.10158 -0.984745,-6.19485 -1.135615,-9.33177 0.02418,-3.76121 -9.79e-4,-7.52246 -0.02313,-11.28363 -0.0093,-1.45708 -0.02535,-2.91289 -0.08665,-4.36891 -0.01216,-0.28888 -0.02862,-0.57757 -0.04595,-0.86618 -0.0095,-0.15805 -0.170199,-0.39219 -0.03449,-0.47374 2.416451,-1.4521 4.972365,-2.65836 7.458547,-3.98755 -0.318611,1.20062 -0.147358,2.50655 -0.557379,3.69634 -0.460466,1.82985 -0.736242,3.69796 -1.338612,5.49213 -0.451889,1.67431 -0.988657,3.33037 -1.550734,4.96987 -0.557869,1.82924 -1.307064,3.59185 -1.703787,5.47109 -0.485466,1.47903 -1.070497,2.96019 -1.238758,4.51529 -0.184195,1.19578 -0.561531,2.33353 -0.79599,3.51482 -0.246819,1.51087 -0.224577,3.02394 -0.124283,4.55158 0.126626,1.65848 0.366165,3.29667 0.70255,4.92636 0.325849,2.65224 0.943578,5.24436 1.457749,7.86385 0.448583,2.3994 0.53305,4.91862 1.556441,7.17111 0,0 -7.2977533,4.0192 -7.2977533,4.0192 z"
       inkscape:connector-curvature="0" />
    <path
       style="opacity:1;fill:#ffffff;fill-opacity:0;stroke:none;stroke-width:0.61399996;stroke-linecap:round;stroke-linejoin:round;stroke-miterlimit:4;stroke-dasharray:1.22799998, 0.61399999;stroke-dashoffset:0;stroke-opacity:1;paint-order:normal"
       id="path21724"
       d="m 14.472385,247.26255 c 1.84421,0.0609 3.689788,0.0538 5.534729,0.047 2.201597,-0.15971 4.334947,0.37724 6.48888,0.73346 1.710856,0.27457 3.443142,0.33388 5.172056,0.37133 2.14416,0.0304 4.288044,0.05 6.43242,0.0472 2.19713,-0.0105 4.394264,-0.014 6.591367,-0.0324 1.760037,-0.005 3.520037,-0.0171 5.279956,0.007 3.934677,0.0726 7.869877,0.0988 11.80506,0.12728 4.883621,0.008 9.767157,-0.0248 14.650741,-0.0363 3.566202,-0.0235 7.132468,-0.0342 10.698702,-0.0508 2.396741,-0.0335 4.793668,-0.0309 7.190581,-0.0321 2.513184,0.0182 5.026326,-0.0542 7.534713,0.11484 3.31747,0.29785 6.65474,0.24699 9.97314,0.49995 1.93683,0.0708 3.82616,0.40697 5.72754,0.73773 1.39503,0.23104 2.80991,0.27271 4.22065,0.29708 0.64959,0.006 1.29918,0.007 1.94878,0.011 0,0 -6.68866,4.85577 -6.68866,4.85577 v 0 c -0.65322,-5.3e-4 -1.30638,-0.004 -1.95928,-0.0276 -1.43243,-0.0541 -2.8683,-0.13064 -4.27774,-0.41086 -1.83196,-0.34765 -3.66799,-0.64034 -5.5315,-0.77083 -3.30578,-0.23967 -6.622055,-0.31656 -9.931341,-0.49926 -2.535188,-0.0504 -5.070706,-0.0179 -7.606308,-0.0199 -2.367468,-10e-4 -4.734952,0.002 -7.102237,-0.0321 -3.519638,-0.0166 -7.039306,-0.0272 -10.55891,-0.0508 -4.850301,-0.0115 -9.700556,-0.0448 -14.550895,-0.0363 -4.051927,0.0287 -8.103859,0.0557 -12.15531,0.1272 -1.767059,0.0236 -3.534177,0.0129 -5.301353,0.009 -2.172165,-0.0165 -4.344339,-0.0165 -6.516536,-0.0215 -2.181508,0.001 -4.363302,0.0453 -6.544443,0.005 -1.743603,-0.0579 -3.486922,-0.18264 -5.205928,-0.4942 -2.12034,-0.39222 -4.228203,-0.80451 -6.399607,-0.62292 -1.888097,-0.007 -3.7767171,-0.012 -5.6641405,0.047 0,0 6.7448735,-4.90044 6.7448735,-4.90044 z"
       inkscape:connector-curvature="0" />
    <path
       style="opacity:1;fill:#ffffff;fill-opacity:0;stroke:none;stroke-width:0.61399996;stroke-linecap:round;stroke-linejoin:round;stroke-miterlimit:4;stroke-dasharray:1.22799998, 0.61399999;stroke-dashoffset:0;stroke-opacity:1;paint-order:normal"
       id="path21726"
       d="m 36.36705,166.19348 c 2.155672,-0.29464 4.300286,-0.67371 6.421607,-1.15656 4.264207,-1.26596 8.612989,-2.13947 13.011078,-2.77902 9.702705,-1.05162 19.478506,-1.06404 29.225613,-1.22427 6.947752,-0.11252 13.895427,-0.23039 20.842732,-0.36809 0.50014,-0.01 1.00028,-0.0194 1.50042,-0.029 0,0 -6.5209,4.73521 -6.5209,4.73521 v 0 c -0.46965,-0.0121 -0.939289,-0.0243 -1.408932,-0.0364 -6.687344,-0.16126 -13.376966,-0.23784 -20.066272,-0.18152 -9.894647,0.13641 -19.832529,0.28702 -29.647166,1.66876 -4.485685,0.80296 -8.917069,1.82475 -13.304173,3.05915 -2.249485,0.49866 -4.51494,1.01921 -6.813312,1.22268 0,0 6.759305,-4.91092 6.759305,-4.91092 z"
       inkscape:connector-curvature="0" />
  </g>
</svg>
