<?xml version="1.0" encoding="UTF-8" standalone="no"?>
<!-- Created with Inkscape (http://www.inkscape.org/) -->

<svg
   xmlns:osb="http://www.openswatchbook.org/uri/2009/osb"
   xmlns:dc="http://purl.org/dc/elements/1.1/"
   xmlns:cc="http://creativecommons.org/ns#"
   xmlns:rdf="http://www.w3.org/1999/02/22-rdf-syntax-ns#"
   xmlns:svg="http://www.w3.org/2000/svg"
   xmlns="http://www.w3.org/2000/svg"
   xmlns:xlink="http://www.w3.org/1999/xlink"
   xmlns:sodipodi="http://sodipodi.sourceforge.net/DTD/sodipodi-0.dtd"
   xmlns:inkscape="http://www.inkscape.org/namespaces/inkscape"
   width="297mm"
   height="210mm"
   viewBox="0 0 297 210"
   version="1.1"
   id="svg9039"
   inkscape:version="0.92.4 (5da689c313, 2019-01-14)"
   sodipodi:docname="csminhap.svg">
  <defs
     id="defs9033">
    <linearGradient
       id="linearGradient12106"
       osb:paint="solid">
      <stop
         style="stop-color:#000000;stop-opacity:1;"
         offset="0"
         id="stop12104" />
    </linearGradient>
    <marker
       style="overflow:visible"
       id="marker10611"
       refX="0.0"
       refY="0.0"
       orient="auto"
       inkscape:stockid="DistanceStart"
       inkscape:isstock="true">
      <g
         id="g10609"
         style="stroke:#f0f700;stroke-opacity:1;fill:#000000;fill-opacity:0.96470588">
        <path
           style="fill:#000000;stroke:#f0f700;stroke-width:1.15;stroke-linecap:square;stroke-opacity:1;fill-opacity:0.96470588"
           d="M 0,0 L 2,0"
           id="path10603" />
        <path
           style="fill:#000000;fill-rule:evenodd;stroke:#f0f700;stroke-opacity:1;fill-opacity:0.96470588"
           d="M 0,0 L 13,4 L 9,0 13,-4 L 0,0 z "
           id="path10605" />
        <path
           style="fill:#000000;stroke:#f0f700;stroke-width:1;stroke-linecap:square;stroke-opacity:1;fill-opacity:0.96470588"
           d="M 0,-4 L 0,40"
           id="path10607" />
      </g>
    </marker>
  </defs>
  <sodipodi:namedview
     id="base"
     pagecolor="#ffffff"
     bordercolor="#666666"
     borderopacity="1.0"
     inkscape:pageopacity="0.0"
     inkscape:pageshadow="2"
     inkscape:zoom="0.47"
     inkscape:cx="417.53168"
     inkscape:cy="262.69723"
     inkscape:document-units="mm"
     inkscape:current-layer="layer1"
     showgrid="false"
     inkscape:window-width="1366"
     inkscape:window-height="706"
     inkscape:window-x="-8"
     inkscape:window-y="-8"
     inkscape:window-maximized="1" />
  <metadata
     id="metadata9036">
    <rdf:RDF>
      <cc:Work
         rdf:about="">
        <dc:format>image/svg+xml</dc:format>
        <dc:type
           rdf:resource="http://purl.org/dc/dcmitype/StillImage" />
        <dc:title></dc:title>
      </cc:Work>
    </rdf:RDF>
  </metadata>
  <g
     inkscape:label="Camada 1"
     inkscape:groupmode="layer"
     id="layer1"
     transform="translate(0,-87)">
    <rect
       style="opacity:1;fill:#ff9900;fill-opacity:1;stroke:none;stroke-width:2.17168689;stroke-linecap:round;stroke-linejoin:round;stroke-miterlimit:4;stroke-dasharray:4.34337375, 2.17168688;stroke-dashoffset:0;stroke-opacity:1;paint-order:normal"
       id="rect2381"
       width="208.85196"
       height="72.05674"
       x="49.539005"
       y="173.71542"
       ry="16.325356" />
    <rect
       style="opacity:1;fill:#666666;fill-opacity:1;stroke:none;stroke-width:0.72233123;stroke-linecap:round;stroke-linejoin:round;stroke-miterlimit:4;stroke-dasharray:1.4446625, 0.72233125;stroke-dashoffset:0;stroke-opacity:1;paint-order:normal"
       id="rect12120"
       width="69.80497"
       height="92.885643"
       x="28.009716"
       y="156.16772"
       ry="23.080673" />
    <ellipse
       style="opacity:0;fill:#000000;fill-opacity:0.96470588;stroke:#f0f700;stroke-width:0.614;stroke-linecap:round;stroke-linejoin:round;stroke-miterlimit:4;stroke-dasharray:1.228, 0.61399999999999999;stroke-dashoffset:0;stroke-opacity:1;marker-mid:url(#marker10611);paint-order:normal"
       id="path9590"
       cx="95.700363"
       cy="250.83865"
       rx="28.147165"
       ry="28.147163" />
    <use
       id="use9592"
       inkscape:spray-origin="#path9590"
       xlink:href="#path9590"
       x="0"
       y="0"
       width="100%"
       height="100%"
       transform="matrix(0.9674312,0,0,1,120.55775,3.4985123)" />
    <path
       style="opacity:1;fill:#ffffff;fill-opacity:0;stroke:none;stroke-width:0.61399996;stroke-linecap:round;stroke-linejoin:round;stroke-miterlimit:4;stroke-dasharray:1.22799998, 0.61399999000000005;stroke-dashoffset:0;stroke-opacity:1;paint-order:normal"
       id="path21720"
       d="m 17.795743,178.9109 c -0.102334,1.99282 -0.09528,3.9903 -0.09994,5.98539 0.01071,2.12539 0.0172,4.25081 0.0217,6.37622 -9.53e-4,1.79982 0.0212,3.59949 0.01766,5.39932 0.01395,1.5942 0.003,3.18841 0.0062,4.78263 0.0076,1.34095 0.01789,2.68188 0.02331,4.02285 0.05853,1.5004 -0.0921,2.98851 -0.258767,4.47674 -0.225605,1.79996 -0.277244,3.61448 -0.334549,5.42565 -0.05046,2.22461 0.05352,4.44656 -0.166782,6.66287 -0.402797,2.44583 -0.684985,4.90266 -0.860002,7.37447 -0.13349,2.35455 -0.152505,4.71313 -0.130791,7.07069 0.107107,1.84025 -0.11465,3.66361 -0.290138,5.4907 -0.148446,1.48154 -0.18991,2.96955 -0.208285,4.45736 0.0017,1.11111 -0.07502,2.22036 0.131147,3.31663 0,0 -7.3347521,3.91895 -7.3347521,3.91895 v 0 c -0.2377909,-1.15748 -0.2047182,-2.31606 -0.1685962,-3.49456 0.031153,-1.51424 0.073641,-3.03063 0.2196734,-4.53879 0.1843104,-1.81254 0.4591405,-3.61905 0.3780298,-5.44694 0.033855,-2.37698 0.020534,-4.75547 0.1364105,-7.13042 0.1474959,-2.4852 0.4448085,-4.95921 0.8628506,-7.41363 0.2507237,-2.17912 0.078971,-4.38031 0.1470388,-6.57153 0.00456,-1.82629 0.051761,-3.65391 0.2442812,-5.47147 0.177206,-1.45367 0.337824,-2.8979 0.251092,-4.36534 0.0054,-1.34888 0.01575,-2.69773 0.02331,-4.0466 0.0032,-1.59631 -0.0078,-3.19262 0.0062,-4.78892 -0.0036,-1.80583 0.01863,-3.6115 0.01766,-5.41732 0.0045,-2.13278 0.01102,-4.26558 0.0217,-6.39834 -0.0046,-1.96109 0.0041,-3.92485 -0.09994,-5.88354 0,0 7.444324,-3.79307 7.444323,-3.79307 z"
       inkscape:connector-curvature="0" />
    <path
       style="opacity:1;fill:#ffffff;fill-opacity:0;stroke:none;stroke-width:0.61399996;stroke-linecap:round;stroke-linejoin:round;stroke-miterlimit:4;stroke-dasharray:1.22799998, 0.61399999;stroke-dashoffset:0;stroke-opacity:1;paint-order:normal"
       id="path21722"
       d="m 6.9123697,259.76249 c -0.7819684,-2.40097 -0.9342848,-4.93627 -1.363834,-7.40881 -0.4807317,-2.62589 -1.1518926,-5.20494 -1.5642613,-7.84391 -0.3886478,-1.63073 -0.6765557,-3.27405 -0.7843012,-4.94698 -0.084172,-1.56278 -0.1825088,-3.12319 -9.525e-4,-4.68094 0.14249,-1.19918 0.5386596,-2.34354 0.7631472,-3.52743 0.1723181,-1.62065 0.7777898,-3.14482 1.2924054,-4.67868 0.474617,-1.83902 1.0951358,-3.62888 1.6688327,-5.43744 0.547457,-1.64784 1.0811634,-3.30042 1.5816945,-4.9631 0.6177803,-1.77018 0.9181512,-3.61882 1.3217691,-5.44253 0.2361744,-1.16183 0.5173264,-2.34997 0.4682654,-3.54434 2.497711,-1.20283 4.925074,-2.56426 7.493133,-3.6085 0.175415,-0.0713 -0.0088,0.37863 -0.01546,0.56788 -0.01081,0.307 -0.0263,0.61382 -0.03697,0.92082 -0.05171,1.48749 -0.07503,2.97406 -0.08645,4.46234 -0.02861,3.77093 -0.05751,7.54197 -0.03519,11.313 0.142047,3.08091 0.706066,6.11479 1.216183,9.14903 0.359371,2.08886 0.515673,4.20739 0.555234,6.32466 0.02154,1.93154 0.0318,3.86315 0.05037,5.79473 -0.05076,1.36819 0.0085,2.68355 0.369625,4.00474 0.264348,0.94688 0.561794,1.88135 0.795765,2.83634 0,0 -7.24708,3.91458 -7.24708,3.91458 v 0 c -0.231716,-0.94659 -0.543307,-1.86447 -0.803305,-2.80281 -0.39643,-1.39935 -0.590668,-2.75763 -0.447907,-4.21836 0.02588,-1.9334 0.04834,-3.86735 0.0083,-5.80072 -0.06188,-2.09296 -0.126399,-4.18937 -0.441138,-6.26343 -0.451556,-3.10158 -0.984745,-6.19485 -1.135615,-9.33177 0.02418,-3.76121 -9.79e-4,-7.52246 -0.02313,-11.28363 -0.0093,-1.45708 -0.02535,-2.91289 -0.08665,-4.36891 -0.01216,-0.28888 -0.02862,-0.57757 -0.04595,-0.86618 -0.0095,-0.15805 -0.170199,-0.39219 -0.03449,-0.47374 2.416451,-1.4521 4.972365,-2.65836 7.458547,-3.98755 -0.318611,1.20062 -0.147358,2.50655 -0.557379,3.69634 -0.460466,1.82985 -0.736242,3.69796 -1.338612,5.49213 -0.451889,1.67431 -0.988657,3.33037 -1.550734,4.96987 -0.557869,1.82924 -1.307064,3.59185 -1.703787,5.47109 -0.485466,1.47903 -1.070497,2.96019 -1.238758,4.51529 -0.184195,1.19578 -0.561531,2.33353 -0.79599,3.51482 -0.246819,1.51087 -0.224577,3.02394 -0.124283,4.55158 0.126626,1.65848 0.366165,3.29667 0.70255,4.92636 0.325849,2.65224 0.943578,5.24436 1.457749,7.86385 0.448583,2.3994 0.53305,4.91862 1.556441,7.17111 0,0 -7.2977533,4.0192 -7.2977533,4.0192 z"
       inkscape:connector-curvature="0" />
    <path
       style="opacity:1;fill:#ffffff;fill-opacity:0;stroke:none;stroke-width:0.61399996;stroke-linecap:round;stroke-linejoin:round;stroke-miterlimit:4;stroke-dasharray:1.22799998, 0.61399999;stroke-dashoffset:0;stroke-opacity:1;paint-order:normal"
       id="path21724"
       d="m 14.472385,247.26255 c 1.84421,0.0609 3.689788,0.0538 5.534729,0.047 2.201597,-0.15971 4.334947,0.37724 6.48888,0.73346 1.710856,0.27457 3.443142,0.33388 5.172056,0.37133 2.14416,0.0304 4.288044,0.05 6.43242,0.0472 2.19713,-0.0105 4.394264,-0.014 6.591367,-0.0324 1.760037,-0.005 3.520037,-0.0171 5.279956,0.007 3.934677,0.0726 7.869877,0.0988 11.80506,0.12728 4.883621,0.008 9.767157,-0.0248 14.650741,-0.0363 3.566202,-0.0235 7.132468,-0.0342 10.698702,-0.0508 2.396741,-0.0335 4.793668,-0.0309 7.190581,-0.0321 2.513184,0.0182 5.026326,-0.0542 7.534713,0.11484 3.31747,0.29785 6.65474,0.24699 9.97314,0.49995 1.93683,0.0708 3.82616,0.40697 5.72754,0.73773 1.39503,0.23104 2.80991,0.27271 4.22065,0.29708 0.64959,0.006 1.29918,0.007 1.94878,0.011 0,0 -6.68866,4.85577 -6.68866,4.85577 v 0 c -0.65322,-5.3e-4 -1.30638,-0.004 -1.95928,-0.0276 -1.43243,-0.0541 -2.8683,-0.13064 -4.27774,-0.41086 -1.83196,-0.34765 -3.66799,-0.64034 -5.5315,-0.77083 -3.30578,-0.23967 -6.622055,-0.31656 -9.931341,-0.49926 -2.535188,-0.0504 -5.070706,-0.0179 -7.606308,-0.0199 -2.367468,-10e-4 -4.734952,0.002 -7.102237,-0.0321 -3.519638,-0.0166 -7.039306,-0.0272 -10.55891,-0.0508 -4.850301,-0.0115 -9.700556,-0.0448 -14.550895,-0.0363 -4.051927,0.0287 -8.103859,0.0557 -12.15531,0.1272 -1.767059,0.0236 -3.534177,0.0129 -5.301353,0.009 -2.172165,-0.0165 -4.344339,-0.0165 -6.516536,-0.0215 -2.181508,0.001 -4.363302,0.0453 -6.544443,0.005 -1.743603,-0.0579 -3.486922,-0.18264 -5.205928,-0.4942 -2.12034,-0.39222 -4.228203,-0.80451 -6.399607,-0.62292 -1.888097,-0.007 -3.7767171,-0.012 -5.6641405,0.047 0,0 6.7448735,-4.90044 6.7448735,-4.90044 z"
       inkscape:connector-curvature="0" />
    <ellipse
       style="opacity:0;fill:#bc5b00;fill-opacity:1;stroke:none;stroke-width:0.61399996;stroke-linecap:round;stroke-linejoin:round;stroke-miterlimit:4;stroke-dasharray:1.22799998, 0.61399999000000005;stroke-dashoffset:0;stroke-opacity:1;paint-order:normal"
       id="path10613"
       cx="93.167107"
       cy="260.69016"
       rx="26.739803"
       ry="28.991579" />
    <ellipse
       style="opacity:0;fill:#5bff00;fill-opacity:1;stroke:none;stroke-width:0.61399996;stroke-linecap:round;stroke-linejoin:round;stroke-miterlimit:4;stroke-dasharray:1.22799998, 0.61399999000000005;stroke-dashoffset:0;stroke-opacity:1;paint-order:normal"
       id="path10625"
       cx="140.45435"
       cy="214.52881"
       rx="72.338211"
       ry="32.36924" />
    <ellipse
       style="opacity:0;fill:#5bff00;fill-opacity:1;stroke:none;stroke-width:0.61399996;stroke-linecap:round;stroke-linejoin:round;stroke-miterlimit:4;stroke-dasharray:1.22799998, 0.61399999;stroke-dashoffset:0;stroke-opacity:1;paint-order:normal"
       id="path10627"
       cx="170.00885"
       cy="221.84708"
       rx="65.301422"
       ry="28.428635" />
    <ellipse
       style="opacity:0;fill:#5bff00;fill-opacity:1;stroke:none;stroke-width:0.61399996;stroke-linecap:round;stroke-linejoin:round;stroke-miterlimit:4;stroke-dasharray:1.22799998, 0.61399999;stroke-dashoffset:0;stroke-opacity:1;paint-order:normal"
       id="path10629"
       cx="158.75"
       cy="232.82446"
       rx="34.902481"
       ry="31.524822" />
    <path
       style="opacity:1;fill:#2d2d2d;fill-opacity:1;stroke:none;stroke-width:0.59186655;stroke-linecap:round;stroke-linejoin:round;stroke-miterlimit:4;stroke-dasharray:1.18373309, 0.59186655;stroke-dashoffset:0;stroke-opacity:1;paint-order:normal"
       id="path10633"
       sodipodi:type="arc"
       sodipodi:cx="112.82411"
       sodipodi:cy="248.42107"
       sodipodi:rx="29.554522"
       sodipodi:ry="27.302748"
       sodipodi:start="0"
       sodipodi:end="6.1821938"
       d="m 142.37863,248.42107 a 29.554522,27.302748 0 0 1 -28.80841,27.29404 29.554522,27.302748 0 0 1 -30.262958,-25.91596 29.554522,27.302748 0 0 1 27.280428,-28.60255 29.554522,27.302748 0 0 1 31.64035,24.47181"
       sodipodi:open="true" />
    <use
       id="use10638"
       inkscape:spray-origin="#path10633"
       xlink:href="#path10633"
       x="0"
       y="0"
       width="100%"
       height="100%"
       transform="translate(86.786209,3.2749167)"
       style="fill:#000000;fill-opacity:1;stroke:none" />
    <path
       style="fill:#ffffff;stroke:none;stroke-width:0.26458332px;stroke-linecap:butt;stroke-linejoin:miter;stroke-opacity:1;fill-opacity:1"
       d="m 242.62854,250.83865 c 15.76242,-5.06649 19.14007,-23.64362 19.14007,-23.64362 l -3.37765,18.57713 v 0"
       id="path12110"
       inkscape:connector-curvature="0" />
    <path
       style="fill:#ffffff;fill-opacity:1;stroke:none;stroke-width:0.59537435px;stroke-linecap:butt;stroke-linejoin:miter;stroke-opacity:1"
       d="m 273.0022,169.33783 c 1.2935,35.97613 -14.61124,4.37759 -14.61124,4.37759 z"
       id="path12114"
       inkscape:connector-curvature="0"
       sodipodi:nodetypes="ccc" />
    <path
       style="fill:#ffffff;stroke:#ffffff;stroke-width:0.26458332px;stroke-linecap:butt;stroke-linejoin:miter;stroke-opacity:1;fill-opacity:1"
       d="m 38.843084,187.78901 10.695922,-14.07359 11.258865,-8.44414 18.577128,-1.12589 1.125887,36.02837 -37.154255,1.12588 z"
       id="path12150"
       inkscape:connector-curvature="0" />
    <path
       style="fill:none;stroke:#000000;stroke-width:0.26458332px;stroke-linecap:butt;stroke-linejoin:miter;stroke-opacity:1"
       d="m 43.346631,201.29964 -4.503547,-13.51063 10.695922,-14.07359 11.258865,-8.44414 v 0"
       id="path12152"
       inkscape:connector-curvature="0" />
    <path
       style="fill:none;stroke:#000000;stroke-width:0.26458332px;stroke-linecap:butt;stroke-linejoin:miter;stroke-opacity:1"
       d="m 38.843084,187.78901 c 10.695922,-14.07359 0,0 0,0 z"
       id="path12154"
       inkscape:connector-curvature="0" />
    <path
       style="opacity:1;fill:#ffffff;fill-opacity:1;stroke:#ffffff;stroke-width:0.61399996;stroke-linecap:round;stroke-linejoin:round;stroke-miterlimit:4;stroke-dasharray:1.22799998, 0.61399999;stroke-dashoffset:0;stroke-opacity:1;paint-order:normal"
       id="path12160"
       d="m 55.955644,169.41557 c -1.475095,-0.0904 -2.948035,0.0838 -4.321072,0.63515 -1.303885,0.37509 -2.389016,1.20712 -3.660317,1.64199 -0.190678,0.0967 -0.375344,0.2064 -0.572032,0.29027 -0.627094,0.26739 -1.281938,0.48122 -1.9099,0.74973 -0.20909,0.0894 -0.41057,0.19565 -0.615858,0.29348 2.183599,-1.24265 4.367197,-2.4853 6.550795,-3.72794 -1.212408,0.56102 -1.571672,1.30762 -2.129858,2.44231 -0.584663,0.87977 -0.83724,1.86674 -1.059022,2.88149 -0.325263,0.96056 -0.438245,1.96946 -0.742714,2.93391 -0.524468,1.16407 -0.996416,2.32568 -1.358001,3.55081 -0.542406,1.26996 -0.894738,2.5997 -1.309409,3.91294 -0.504455,1.30314 -0.834779,2.64757 -1.023882,4.02939 -0.144016,1.27688 -0.149656,2.5636 -0.168728,3.84681 -0.0109,1.40643 0.449879,2.72983 0.776317,4.07837 0.262702,0.67758 0.455028,1.37595 0.673764,2.06805 0,0 -7.257261,3.99662 -7.257261,3.99662 v 0 c -0.247894,-0.71 -0.449694,-1.4332 -0.707652,-2.14021 -0.306023,-1.41602 -0.770639,-2.80028 -0.837428,-4.25951 -0.01148,-1.31022 -0.02574,-2.62367 0.106114,-3.92915 0.165971,-1.41441 0.420603,-2.83052 0.966314,-4.15359 0.377777,-1.32443 0.733705,-2.66523 1.311471,-3.92031 0.391438,-1.2187 0.664501,-2.4595 1.304975,-3.58458 0.41974,-0.91874 0.430194,-1.90832 0.755621,-2.85995 0.361101,-1.01189 0.337717,-2.1577 0.999511,-3.06801 0.644496,-1.01528 0.756137,-2.30874 1.978917,-2.84759 3.656205,-2.09613 6.910551,-4.23332 10.761165,-5.69727 1.203351,-0.5777 2.378006,-1.21499 3.673705,-1.57585 1.498687,-0.3814 3.028418,-0.5112 4.57377,-0.49829 0,0 -6.759305,4.91093 -6.759305,4.91093 z"
       inkscape:connector-curvature="0" />
    <path
       style="opacity:1;fill:#ffffff;fill-opacity:1;stroke:#ffffff;stroke-width:0.61399996;stroke-linecap:round;stroke-linejoin:round;stroke-miterlimit:4;stroke-dasharray:1.22799998, 0.61399999;stroke-dashoffset:0;stroke-opacity:1;paint-order:normal"
       id="path12162"
       d="m 40.218836,189.83757 c 0.420954,-1.68419 1.017368,-3.31361 1.537139,-4.96737 0.328102,-1.61519 0.779732,-3.14579 1.467223,-4.64373 0.635894,-1.70384 1.747827,-3.03144 3.019253,-4.29194 1.152922,-1.16454 2.315932,-2.32212 3.557871,-3.39234 3.087473,-2.66669 6.829493,-4.34349 10.371314,-6.33797 -0.70167,0.54847 2.592996,-1.30199 1.727081,-0.8037 -12.347797,7.10558 -7.420774,1.34615 -6.725475,4.54532 -0.720408,0.59765 -1.661991,0.83496 -2.439657,1.36532 10.554634,-6.66198 6.72606,-4.24552 4.150733,-1.33354 -0.322077,0.48712 -1.026128,1.08828 -0.995474,1.74211 0.0058,0.12387 0.232148,0.0946 0.355058,0.11108 2.576015,-1.39736 6.767436,-3.59044 -4.982779,2.85439 -0.398645,0.21866 0.696143,-0.58697 1.015939,-0.91017 0.827215,-1.02569 1.743874,-1.94183 2.848589,-2.66153 2.710807,-1.7751 5.32221,-4.05314 8.513495,-4.72106 0.537136,-0.11242 1.074425,-0.14505 1.611725,-0.26406 2.913113,-0.58354 7.782071,-4.60297 -5.366144,3.40106 -0.05989,0.0365 0.1035,0.0991 0.133692,0.16241 0.04292,0.09 0.05407,0.19191 0.08111,0.28787 -0.470255,0.10975 -0.962403,-0.0632 -1.438886,-0.0133 -0.318434,0.0333 -0.623393,0.14732 -0.937988,0.20682 0.323554,-0.34258 -1.044853,0.59597 -0.783899,0.44652 23.267421,-13.3251 -16.922115,9.67883 6.293797,-3.55029 -2.509822,1.41374 -4.998448,2.86579 -7.529465,4.24121 -0.280165,0.15225 -0.633936,0.12945 -0.914249,0.28143 -0.148868,0.0807 -0.563841,0.3743 -0.41637,0.29106 6.630472,-3.74239 8.703821,-5.4974 6.335559,-3.53363 -3.206747,2.45786 -6.652858,4.82986 -10.47266,6.17169 -0.544812,0.14545 -0.827482,0.20217 -1.348412,0.41429 -0.212413,0.0865 -0.821889,0.40611 -0.62334,0.2913 2.172509,-1.25618 4.362389,-2.4821 6.547276,-3.71663 0.173257,-0.0979 -0.3399,0.20713 -0.512231,0.30664 -2.528419,1.46005 -5.059971,2.91466 -7.589956,4.37199 -1.129827,0.43689 -1.99421,0.70451 -2.95306,-0.183 -0.742529,-1.03975 0.103772,-1.94665 0.861288,-2.65541 2.864993,-2.16406 6.497256,-6.89904 9.688073,-4.30036 1.002281,0.72048 1.337683,1.93688 1.567021,3.0886 0.19199,1.48942 0.159848,2.9954 0.164298,4.49381 -0.0019,1.60352 -0.491762,3.1127 -1.072396,4.58666 -0.573656,1.37393 -1.049549,2.78991 -1.656466,4.14932 -0.642297,1.27933 -1.161134,2.61359 -1.908508,3.83703 -0.864529,1.08117 -1.698834,2.19029 -2.607847,3.23486 -0.955252,0.94776 -1.898309,1.827 -2.593142,2.98824 -0.571264,1.02729 -0.731954,2.17561 -0.818372,3.32833 -0.03229,0.74752 -0.02008,0.37354 -0.03662,1.12194 0,0 -7.395887,3.75298 -7.395887,3.75298 v 0 c 0.0086,-0.76871 0.0013,-0.38336 0.02146,-1.15605 0.06102,-1.24794 0.175424,-2.50346 0.683644,-3.66222 0.288171,-0.58921 0.598688,-1.25301 1.011369,-1.76834 0.436645,-0.54525 1.104458,-0.83891 1.517373,-1.40877 0.943578,-0.99897 1.711385,-2.12624 2.641253,-3.13701 0.894665,-1.11045 1.336974,-2.4477 1.958917,-3.71713 0.7011,-1.3139 1.123061,-2.75711 1.72757,-4.11651 0.568867,-1.38907 1.078608,-2.78218 1.193289,-4.29517 7.94e-4,-1.44545 0.0098,-2.89686 -0.147804,-4.33548 -0.15793,-0.96448 -0.364434,-1.95313 -1.264081,-2.49349 -0.247253,-0.11088 -0.318693,-0.19569 -0.600586,-0.11475 -0.100615,0.0289 -0.364831,0.20543 -0.274545,0.15246 12.368512,-7.25632 8.062029,-5.15821 5.91021,-3.30928 -0.397597,0.2503 -0.797475,0.52621 -1.124564,0.86887 -0.08004,0.0838 -0.112932,0.21302 -0.208939,0.27797 -0.0631,0.0427 -0.167026,-0.0283 -0.227885,0.0176 -0.03368,0.0254 0.03377,0.0773 0.05066,0.11591 0.755695,0.34808 1.679442,-0.2583 2.350675,-0.56682 -2.197294,1.2747 -4.390279,2.55686 -6.591877,3.82411 -0.176475,0.10158 0.339513,-0.22541 0.516072,-0.32684 2.548766,-1.46422 5.088964,-2.94393 7.659375,-4.3698 0.607357,-0.33692 1.35336,-0.37872 1.970604,-0.69553 2.851533,-1.33554 1.28325,-0.62474 -5.783593,3.45221 -0.193453,0.1116 0.370863,-0.24906 0.559657,-0.36838 0.516318,-0.32631 1.01578,-0.66283 1.50436,-1.03082 0.12324,-0.10681 0.23056,-0.23539 0.369718,-0.32044 2.477757,-1.51424 4.970034,-3.00494 7.474998,-4.47374 0.220617,-0.12936 0.758468,-0.27567 0.994219,-0.36294 0.139205,-0.0515 0.538554,-0.24764 0.41057,-0.17244 -2.26472,1.33049 -4.54933,2.62683 -6.823996,3.94025 24.478231,-13.99215 -16.458271,9.61375 8.025556,-4.66973 0.147894,-0.0863 0.800971,-0.20238 0.909098,-0.22451 0.930042,-0.12936 1.98016,-0.15665 2.828047,0.29444 0.124602,0.16656 0.280598,0.31372 0.373808,0.49968 1.376291,2.74577 -5.964325,4.50749 -8.914691,5.15138 -0.527886,0.097 -1.061701,0.17565 -1.565399,0.36992 -0.150659,0.0581 -0.5807,0.28119 -0.441579,0.19921 5.323274,-3.13703 9.025125,-5.15932 6.207821,-3.6165 -1.060881,0.75399 -2.224223,1.35139 -2.957566,2.49353 -2.438109,2.94192 -3.451034,2.63497 -8.615068,5.59124 -0.34017,0.19474 -0.920295,0.39498 -1.329928,0.37483 -0.231834,-0.0114 -0.452237,-0.10483 -0.678358,-0.15724 -1.349708,-1.0377 -0.831127,-1.97748 -0.0034,-3.18664 3.146618,-3.7159 3.931078,-3.94616 9.916017,-7.10676 0.908251,-0.43661 1.978353,-1.14272 2.997694,-0.77156 2.94054,3.37885 -5.634405,4.42077 -8.469034,6.02304 12.292055,-7.16314 6.248858,-3.96651 3.759327,-1.89919 -1.282793,1.04856 -2.511467,2.15775 -3.658132,3.35595 -1.215191,1.22532 -2.51851,2.33882 -3.10656,4.02718 -0.728366,1.4532 -1.260158,2.9325 -1.530554,4.54014 -0.490228,1.60851 -1.125635,3.16593 -1.437288,4.82533 0,0 -7.516153,3.64462 -7.516153,3.64462 z"
       inkscape:connector-curvature="0" />
    <path
       style="opacity:1;fill:#ffffff;fill-opacity:1;stroke:#ffffff;stroke-width:0.61399996;stroke-linecap:round;stroke-linejoin:round;stroke-miterlimit:4;stroke-dasharray:1.22799998, 0.61399999;stroke-dashoffset:0;stroke-opacity:1;paint-order:normal"
       id="path12164"
       d="m 46.450199,200.96292 c 1.286365,-0.13949 2.553208,-0.29496 3.817371,-0.56702 1.205024,-0.28729 2.372151,-0.66382 3.605305,-0.83819 0.864476,-0.0639 0.428485,-0.036 1.308,-0.0833 0,0 -6.653366,4.91064 -6.653366,4.91064 v 0 c -0.861893,0.0836 -0.435673,0.0307 -1.278789,0.15773 -1.201809,0.23978 -2.362629,0.63761 -3.571783,0.84433 -1.290624,0.24173 -2.60586,0.31818 -3.886385,0.61811 0,0 6.659647,-5.04232 6.659647,-5.04232 z"
       inkscape:connector-curvature="0" />
    <path
       style="opacity:1;fill:#ffffff;fill-opacity:1;stroke:#ffffff;stroke-width:0.61399996;stroke-linecap:round;stroke-linejoin:round;stroke-miterlimit:4;stroke-dasharray:1.22799998, 0.61399999;stroke-dashoffset:0;stroke-opacity:1;paint-order:normal"
       id="path12166"
       d="m 40.193232,204.88099 c -1.078436,-0.0228 -2.160003,-0.0642 -3.237431,0.008 5.417754,-4.78949 4.622668,-4.96313 8.715229,-4.89372 1.602735,0.009 3.205483,0.0124 4.808236,0.017 1.491679,-0.002 2.983325,-0.0133 4.474991,-0.0195 1.160356,-0.004 2.320726,-0.005 3.481091,-0.006 1.122352,-2.3e-4 2.244704,-1e-4 3.367055,-4e-5 1.235171,5.3e-4 2.470267,0.008 3.705448,0.007 1.430615,-0.006 2.79559,-0.53262 4.19531,-0.80648 1.270076,-0.2056 2.445715,-0.22972 3.693453,-0.55567 1.005896,-0.24692 2.04361,-0.28834 3.074027,-0.3204 1.375257,-0.01 2.750532,-0.004 4.12582,-0.007 1.238007,-0.003 2.476013,-0.005 3.714023,-0.006 0.567785,-2.6e-4 1.13557,-5.3e-4 1.703355,-5.3e-4 0,0 -6.710677,4.87535 -6.710677,4.87535 v 0 c -0.566883,-2.7e-4 -1.133766,-7.9e-4 -1.700649,-0.002 -1.229241,-0.003 -2.458471,-0.008 -3.687702,-0.013 -1.379238,-0.003 -2.75967,-0.009 -4.137429,0.0644 -1.009687,0.0657 -2.012744,0.18499 -2.994584,0.43979 -1.20741,0.22653 -2.450531,0.21088 -3.649141,0.50565 -1.426713,0.31327 -2.837773,0.78612 -4.318598,0.68761 -1.241271,-0.002 -2.482456,0.006 -3.723716,0.007 -1.122307,6e-5 -2.244617,1.9e-4 -3.366924,-5e-5 -1.155277,-5.3e-4 -2.310553,-0.001 -3.465819,-0.006 -1.473827,-0.006 -2.947631,-0.0174 -4.421471,-0.0195 -1.618313,0.005 -3.236621,0.008 -4.854916,0.017 -4.075681,0.066 -4.148728,0.90024 4.756044,-4.89373 1.068443,0.0884 2.144263,0.0183 3.21428,0.008 0,0 -6.759305,4.91092 -6.759305,4.91092 z"
       inkscape:connector-curvature="0" />
    <path
       style="opacity:1;fill:#ffffff;fill-opacity:1;stroke:#ffffff;stroke-width:0.61399996;stroke-linecap:round;stroke-linejoin:round;stroke-miterlimit:4;stroke-dasharray:1.22799998, 0.61399999;stroke-dashoffset:0;stroke-opacity:1;paint-order:normal"
       id="path12168"
       d="m 113.51981,227.41469 c 0.33691,2.97175 1.50401,5.75752 2.531,8.53938 0.84252,2.41986 1.85204,4.78154 2.55595,7.24762 0.37832,1.5132 0.45568,3.06795 0.4875,4.61941 -0.005,1.06763 -0.008,2.12532 0.14143,3.18345 0,0 -7.32359,3.86873 -7.32359,3.86873 v 0 c -0.17072,-1.09734 -0.21749,-2.18272 -0.16593,-3.29406 -0.0147,-1.49471 -0.0464,-2.99882 -0.35196,-4.46802 -0.58371,-2.48447 -1.50371,-4.87406 -2.3258,-7.286 -1.01832,-2.82446 -2.16883,-5.61292 -2.90568,-8.52943 0,0 7.35708,-3.88108 7.35708,-3.88108 z"
       inkscape:connector-curvature="0" />
    <path
       style="opacity:1;fill:#ffffff;fill-opacity:1;stroke:#ffffff;stroke-width:0.61399996;stroke-linecap:round;stroke-linejoin:round;stroke-miterlimit:4;stroke-dasharray:1.22799998, 0.61399999;stroke-dashoffset:0;stroke-opacity:1;paint-order:normal"
       id="path12170"
       d="m 111.62691,257.22947 c -2.24909,-0.0724 -4.50007,-0.0717 -6.75013,-0.0836 -2.96139,-0.0149 -5.922689,1.2e-4 -8.884069,0.009 -2.456577,0.18668 -4.804839,-0.49149 -7.162472,-1.05694 -1.020824,-0.25977 -2.068415,-0.35267 -3.089561,-0.60286 0,0 6.792354,-4.70686 6.792354,-4.70686 v 0 c 1.011508,0.21049 2.030542,0.38755 3.026177,0.66882 2.288464,0.59835 4.585061,1.10413 6.972461,0.94701 2.95331,0.009 5.90655,0.0237 8.85987,0.009 2.32679,-0.0121 4.65434,-0.0131 6.98024,-0.0836 0,0 -6.74487,4.90044 -6.74487,4.90044 z"
       inkscape:connector-curvature="0" />
    <path
       style="opacity:1;fill:#ffffff;fill-opacity:1;stroke:#ffffff;stroke-width:0.61399996;stroke-linecap:round;stroke-linejoin:round;stroke-miterlimit:4;stroke-dasharray:1.22799998, 0.61399999;stroke-dashoffset:0;stroke-opacity:1;paint-order:normal"
       id="path12172"
       d="m 119.68265,251.76085 c 1.524,0.0767 3.06998,-0.0891 4.55528,-0.43244 1.74038,-0.23269 3.3982,-0.73286 5.09338,-1.16959 1.72646,-0.40702 3.42751,-0.84373 5.19616,-1.02946 0,0 -6.58996,4.91532 -6.58996,4.91532 v 0 c -1.72774,0.25505 -3.41289,0.69263 -5.10998,1.09923 -1.70515,0.45541 -3.4111,0.86783 -5.15568,1.14743 -1.5728,0.24084 -3.15624,0.38304 -4.7485,0.38043 0,0 6.7593,-4.91092 6.7593,-4.91092 z"
       inkscape:connector-curvature="0" />
    <path
       style="opacity:1;fill:#ffffff;fill-opacity:1;stroke:#ffffff;stroke-width:0.61399996;stroke-linecap:round;stroke-linejoin:round;stroke-miterlimit:4;stroke-dasharray:1.22799998, 0.61399999;stroke-dashoffset:0;stroke-opacity:1;paint-order:normal"
       id="path12174"
       d="m 118.06103,257.67723 c 0.41207,1.6509 0.68899,3.32392 0.86082,5.01523 0.18638,1.62407 0.0904,3.26001 0.19954,4.88713 0.008,0.79435 0.18819,1.53025 0.46513,2.26495 0,0 -7.22076,4.00454 -7.22076,4.00454 v 0 c -0.28899,-0.80803 -0.50424,-1.61647 -0.53079,-2.48323 -0.14959,-1.62058 -0.085,-3.25035 -0.20342,-4.87394 -0.13395,-1.62069 -0.33515,-3.25067 -0.86827,-4.79549 0,0 7.29775,-4.01919 7.29775,-4.01919 z"
       inkscape:connector-curvature="0" />
    <path
       style="opacity:1;fill:#ffffff;fill-opacity:1;stroke:#ffffff;stroke-width:0.61399996;stroke-linecap:round;stroke-linejoin:round;stroke-miterlimit:4;stroke-dasharray:1.22799998, 0.61399999;stroke-dashoffset:0;stroke-opacity:1;paint-order:normal"
       id="path12176"
       d="m 206.37379,234.71366 c -0.0851,1.70161 -0.0647,3.40669 -0.0503,5.10979 0.0181,1.55008 -7.9e-4,3.09993 0.009,4.65012 0.0716,1.53422 -0.0251,3.05137 -0.29732,4.56142 -0.2155,1.53344 -0.81856,2.90249 -1.67908,4.17219 -2.22851,2.29921 -6.85083,4.191 -8.61411,5.18412 -0.59046,0.33256 -1.2,0.63606 -1.82618,0.89391 -1.42039,0.69156 -2.9034,1.25123 -4.39876,1.75769 -2.15088,0.80701 -4.43913,0.92989 -6.70621,1.07107 -2.65875,0.42934 -5.31757,0.82754 -7.99822,1.09156 -1.27072,0.10192 -2.07665,0.36946 -3.18754,-0.3639 0,0 6.97604,-4.53391 6.97604,-4.53391 v 0 c 0.86794,0.36104 1.85017,0.055 2.75578,0.0468 2.66937,-0.24926 5.30946,-0.69407 7.96658,-1.04179 2.27666,-0.1756 4.5436,-0.4672 6.67894,-1.32697 1.48471,-0.54708 2.95374,-1.13592 4.3747,-1.83467 0.4159,-0.21221 0.82982,-0.42829 1.24701,-0.63793 0.19411,-0.0975 0.77181,-0.39812 0.58483,-0.28754 -11.48309,6.79121 -8.01643,4.54518 -5.47184,3.23901 1.00644,-1.07487 1.66491,-2.37852 1.90292,-3.83966 0.30876,-1.45771 0.39959,-2.91978 0.34722,-4.40878 0.009,-1.55314 -0.009,-3.10595 0.009,-4.65898 0.0141,-1.68599 0.0361,-3.37414 -0.0503,-5.05854 0,0 7.42843,-3.78498 7.42843,-3.78498 z"
       inkscape:connector-curvature="0" />
    <path
       style="opacity:1;fill:#ffffff;fill-opacity:1;stroke:#ffffff;stroke-width:0.61399996;stroke-linecap:round;stroke-linejoin:round;stroke-miterlimit:4;stroke-dasharray:1.22799998, 0.61399999;stroke-dashoffset:0;stroke-opacity:1;paint-order:normal"
       id="path12178"
       d="m 203.56702,256.03412 c 0.0121,1.61934 0.43528,3.19872 0.84362,4.75451 0.49097,1.74556 1.16325,3.40528 1.51092,5.1923 0.29304,1.71989 0.68717,3.41485 1.09465,5.10981 0.14078,0.5452 0.42245,1.0321 0.67813,1.5281 0,0 -7.20441,4.10923 -7.20441,4.10923 v 0 c -0.2823,-0.56066 -0.60024,-1.10901 -0.74181,-1.72763 -0.36593,-1.71947 -0.73748,-3.43379 -1.05358,-5.16361 -0.33243,-1.77407 -1.01603,-3.41011 -1.49486,-5.13978 -0.41551,-1.61149 -0.83399,-3.22117 -1.07699,-4.86986 0,0 7.44433,-3.79307 7.44433,-3.79307 z"
       inkscape:connector-curvature="0" />
    <path
       style="opacity:1;fill:#ffffff;fill-opacity:1;stroke:#ffffff;stroke-width:0.61399996;stroke-linecap:round;stroke-linejoin:round;stroke-miterlimit:4;stroke-dasharray:1.22799998, 0.61399999;stroke-dashoffset:0;stroke-opacity:1;paint-order:normal"
       id="path12180"
       d="m 201.82254,256.13136 c 1.30403,-0.51356 2.69874,-0.68719 4.0821,-0.83539 1.4469,-0.22021 2.92596,-0.35899 4.35984,-0.66445 1.80573,-0.30698 3.64874,-0.60928 5.47055,-0.34243 1.77483,0.22383 3.46964,0.79822 5.215,1.16138 1.1509,0.22692 2.20714,0.75372 3.35629,1.03297 0,0 -6.79166,4.67149 -6.79166,4.67149 v 0 c -1.12318,-0.31872 -2.19734,-0.79419 -3.34952,-1.00499 -1.68799,-0.42329 -3.35242,-0.96904 -5.09836,-1.11077 -1.8094,-0.0674 -3.60459,0.2045 -5.37753,0.55451 -1.46224,0.22745 -2.92227,0.48032 -4.39485,0.629 -1.40883,0.19453 -2.77247,0.53611 -4.13151,0.951 0,0 6.65965,-5.04232 6.65965,-5.04232 z"
       inkscape:connector-curvature="0" />
    <path
       style="opacity:1;fill:#2d2d2d;fill-opacity:1;stroke:#ffffff;stroke-width:0.61399996;stroke-linecap:round;stroke-linejoin:round;stroke-miterlimit:4;stroke-dasharray:1.22799998, 0.61399999000000005;stroke-dashoffset:0;stroke-opacity:1;paint-order:normal"
       id="path12182"
       d="m 256.42803,231.36186 c 2.53593,-0.24814 5.08975,-0.24668 7.63372,-0.16851 2.81332,0.20184 5.56012,0.8197 8.28401,1.51598 0,0 -6.52339,4.49556 -6.52339,4.49556 v 0 c -2.68531,-0.68001 -5.3941,-1.30515 -8.17982,-1.36207 -2.62755,0.003 -5.28985,0.0358 -7.87416,0.56135 0,0 6.65964,-5.04231 6.65964,-5.04231 z"
       inkscape:connector-curvature="0" />
  </g>
</svg>
